<svg width="72" height="72" viewBox="0 0 72 72" fill="currentColor" xmlns="http://www.w3.org/2000/svg">
<path fill-rule="evenodd" clip-rule="evenodd" d="M35.6953 25.9482C30.3106 25.9482 25.9453 30.3135 25.9453 35.6982C25.9453 39.4044 28.0123 42.6309 31.0672 44.2824C32.1601 44.8734 32.5672 46.2384 31.9765 47.3316C31.3855 48.4248 30.0202 48.8319 28.9271 48.2409C24.4767 45.8352 21.4453 41.1225 21.4453 35.6982C21.4453 27.8282 27.8253 21.4482 35.6953 21.4482C41.3407 21.4482 46.2151 24.7314 48.5212 29.4824C49.0639 30.6003 48.5974 31.9464 47.4796 32.4891C46.3618 33.0318 45.0157 32.5653 44.473 31.4475C42.8908 28.1877 39.5524 25.9482 35.6953 25.9482ZM47.6953 33.4482C48.9379 33.4482 49.9453 34.4556 49.9453 35.6982C49.9453 43.5684 43.5655 49.9482 35.6953 49.9482C34.4527 49.9482 33.4453 48.9408 33.4453 47.6982C33.4453 46.4556 34.4527 45.4482 35.6953 45.4482C41.08 45.4482 45.4453 41.0829 45.4453 35.6982C45.4453 34.4556 46.4527 33.4482 47.6953 33.4482Z" fill="currentColor"/>
<path fill-rule="evenodd" clip-rule="evenodd" d="M11.8327 11.8337C10.3683 13.2982 10.3683 15.6726 11.8327 17.137C13.2972 18.6015 15.6716 18.6015 17.136 17.137C18.6005 15.6726 18.6005 13.2982 17.136 11.8337C15.6716 10.3692 13.2972 10.3692 11.8327 11.8337ZM8.65076 20.319C5.42891 17.0972 5.42891 11.8736 8.65076 8.65174C11.8726 5.42989 17.0962 5.42989 20.318 8.65174C23.5399 11.8736 23.5399 17.0972 20.318 20.319C17.0962 23.5408 11.8726 23.5408 8.65076 20.319Z" fill="currentColor"/>
<path fill-rule="evenodd" clip-rule="evenodd" d="M59.5638 59.5629C58.0992 61.0272 55.725 61.0272 54.2604 59.5629C52.7961 58.0983 52.7961 55.7241 54.2604 54.2595C55.725 52.7949 58.0992 52.7949 59.5638 54.2595C61.0281 55.7241 61.0281 58.0983 59.5638 59.5629ZM51.0786 62.7447C54.3003 65.9667 59.5239 65.9667 62.7456 62.7447C65.9676 59.523 65.9676 54.2994 62.7456 51.0774C59.5239 47.8557 54.3003 47.8557 51.0786 51.0774C47.8566 54.2994 47.8566 59.523 51.0786 62.7447Z" fill="currentColor"/>
<path fill-rule="evenodd" clip-rule="evenodd" d="M17.1356 17.1375C18.0142 16.2588 19.4389 16.2588 20.3175 17.1375L28.8028 25.6228C29.6815 26.5015 29.6815 27.9261 28.8028 28.8048C27.9241 29.6835 26.4995 29.6835 25.6209 28.8048L17.1356 20.3195C16.2569 19.4408 16.2569 18.0162 17.1356 17.1375Z" fill="currentColor"/>
<path fill-rule="evenodd" clip-rule="evenodd" d="M54.2619 54.2594C55.1406 53.3807 55.1406 51.956 54.2619 51.0773L45.7764 42.5921C44.898 41.7134 43.4733 41.7134 42.5946 42.5921C41.7159 43.4708 41.7159 44.8952 42.5946 45.7739L51.0798 54.2594C51.9585 55.1381 53.3832 55.1381 54.2619 54.2594Z" fill="currentColor"/>
<path fill-rule="evenodd" clip-rule="evenodd" d="M59.5636 11.8337C61.0282 13.2982 61.0282 15.6726 59.5636 17.137C58.0993 18.6015 55.7248 18.6015 54.2605 17.137C52.7959 15.6726 52.7959 13.2982 54.2605 11.8337C55.7248 10.3692 58.0993 10.3692 59.5636 11.8337ZM62.7457 20.319C65.9674 17.0972 65.9674 11.8736 62.7457 8.65174C59.524 5.42989 54.3004 5.42989 51.0784 8.65174C47.8567 11.8736 47.8567 17.0972 51.0784 20.319C54.3004 23.5408 59.524 23.5408 62.7457 20.319Z" fill="currentColor"/>
<path fill-rule="evenodd" clip-rule="evenodd" d="M11.8327 59.5629C13.2972 61.0272 15.6716 61.0272 17.136 59.5629C18.6005 58.0983 18.6005 55.7241 17.136 54.2595C15.6716 52.7949 13.2972 52.7949 11.8327 54.2595C10.3683 55.7241 10.3683 58.0983 11.8327 59.5629ZM20.318 62.7447C17.0962 65.9667 11.8726 65.9667 8.65074 62.7447C5.42892 59.523 5.42892 54.2994 8.65074 51.0774C11.8726 47.8557 17.0962 47.8557 20.318 51.0774C23.5398 54.2994 23.5398 59.523 20.318 62.7447Z" fill="currentColor"/>
<path fill-rule="evenodd" clip-rule="evenodd" d="M54.2616 17.1375C53.3829 16.2588 51.9585 16.2588 51.0798 17.1375L42.5943 25.6228C41.7159 26.5015 41.7159 27.9261 42.5943 28.8048C43.473 29.6835 44.8977 29.6835 45.7764 28.8048L54.2616 20.3195C55.1403 19.4408 55.1403 18.0162 54.2616 17.1375Z" fill="currentColor"/>
<path fill-rule="evenodd" clip-rule="evenodd" d="M17.1356 54.2599C16.2569 53.3812 16.2569 51.9565 17.1356 51.0781L25.6208 42.5926C26.4995 41.7139 27.9242 41.7139 28.8028 42.5926C29.6815 43.4713 29.6815 44.896 28.8028 45.7747L20.3176 54.2599C19.4389 55.1386 18.0143 55.1386 17.1356 54.2599Z" fill="currentColor"/>
</svg>
