<svg width="72" height="72" viewBox="0 0 72 72" fill="currentColor" xmlns="http://www.w3.org/2000/svg">
<path d="M66 36C66 52.5825 52.5802 66 36 66C19.4175 66 6 52.5802 6 36C6 19.4175 19.4198 6 36 6C52.5825 6 66 19.4198 66 36ZM61.3125 36C61.3125 22.0085 49.9897 10.6875 36 10.6875C22.0085 10.6875 10.6875 22.0103 10.6875 36C10.6875 49.9915 22.0103 61.3125 36 61.3125C49.9915 61.3125 61.3125 49.9897 61.3125 36Z" fill="currentColor"/>
<path d="M50.75 48.7504L48 42.2504H48.5C50 42.2504 51 41.2504 51 39.7504C51 38.2504 50 37.2504 48.5 37.2504H46L45 34.7504H48.5C50 34.7504 51 33.7504 51 32.2504C51 30.7504 50 29.7504 48.5 29.7504H42.75L38.25 18.7504C37.75 17.5004 36.25 16.7504 35 17.5004C34.5 17.7504 34 18.2504 33.75 18.7504L29.25 29.7504H23.5C22 29.7504 21 30.7504 21 32.2504C21 33.7504 22 34.7504 23.5 34.7504H27L26 37.2504H23.5C22 37.2504 21 38.2504 21 39.7504C21 41.2504 22 42.2504 23.5 42.2504H24L21.25 48.7504C20.75 50.0004 21.25 51.5004 22.5 52.0004C23.75 52.5004 25.25 52.0004 25.75 50.7504L29.25 42.2504H42.5L46 50.7504C46.5 52.0004 48 52.7504 49.25 52.0004C50.75 51.5004 51.25 50.0004 50.75 48.7504ZM36 26.2504L37.5 29.7504H34.5L36 26.2504ZM31.5 37.2504L32.5 34.7504H39.5L40.5 37.2504H31.5Z" fill="currentColor"/>
</svg>
