<svg width="72" height="72" viewBox="0 0 72 72" fill="currentColor" xmlns="http://www.w3.org/2000/svg">
<g clip-path="url(#clip0_1601_105716)">
<path d="M36 6C19.457 6 6 19.457 6 36C6 52.543 19.457 66 36 66C52.543 66 66 52.5407 66 36C66 19.4593 52.543 6 36 6ZM36 61.3525C22.0225 61.3525 10.6475 49.9799 10.6475 36C10.6475 22.0201 22.0225 10.6475 36 10.6475C49.9775 10.6475 61.3525 22.0201 61.3525 36C61.3525 49.9799 49.9799 61.3525 36 61.3525Z" fill="currentColor"/>
<path d="M47.6163 33.4671H38.3212V24.172C38.3212 22.8892 37.2825 21.8481 35.9974 21.8481C34.7123 21.8481 33.6736 22.8892 33.6736 24.172V33.4671H24.3785C23.0934 33.4671 22.0547 34.5081 22.0547 35.7909C22.0547 37.0736 23.0934 38.1147 24.3785 38.1147H33.6736V47.4098C33.6736 48.6925 34.7123 49.7336 35.9974 49.7336C37.2825 49.7336 38.3212 48.6925 38.3212 47.4098V38.1147H47.6163C48.9014 38.1147 49.9402 37.0736 49.9402 35.7909C49.9402 34.5081 48.9014 33.4671 47.6163 33.4671Z" fill="currentColor"/>
</g>
<defs>
<clipPath id="clip0_1601_105716">
<rect width="60" height="60" fill="white" transform="translate(6 6)"/>
</clipPath>
</defs>
</svg>
