<svg width="72" height="72" viewBox="0 0 72 72" fill="currentColor" xmlns="http://www.w3.org/2000/svg">
<path d="M59.8711 2.11768H16.3662C14.2731 2.11992 12.2664 2.95239 10.7864 4.43242C9.30633 5.91246 8.47386 7.91918 8.47162 10.0123V14.8236H6.35398C5.79234 14.8236 5.25371 15.0467 4.85657 15.4438C4.45944 15.8409 4.23633 16.3796 4.23633 16.9412C4.23633 17.5028 4.45944 18.0415 4.85657 18.4386C5.25371 18.8357 5.79234 19.0589 6.35398 19.0589H8.47162V27.5294H6.35398C5.79234 27.5294 5.25371 27.7526 4.85657 28.1497C4.45944 28.5468 4.23633 29.0855 4.23633 29.6471C4.23633 30.2087 4.45944 30.7474 4.85657 31.1445C5.25371 31.5416 5.79234 31.7647 6.35398 31.7647H8.47162V40.2353H6.35398C5.79234 40.2353 5.25371 40.4584 4.85657 40.8556C4.45944 41.2527 4.23633 41.7913 4.23633 42.353C4.23633 42.9146 4.45944 43.4532 4.85657 43.8504C5.25371 44.2475 5.79234 44.4706 6.35398 44.4706H8.47162V52.9412H6.35398C5.79234 52.9412 5.25371 53.1643 4.85657 53.5615C4.45944 53.9586 4.23633 54.4972 4.23633 55.0589C4.23633 55.6205 4.45944 56.1591 4.85657 56.5563C5.25371 56.9534 5.79234 57.1765 6.35398 57.1765H8.47162V61.9878C8.47386 64.0809 9.30633 66.0876 10.7864 67.5676C12.2664 69.0477 14.2731 69.8801 16.3662 69.8824H59.8711C61.9642 69.8801 63.971 69.0477 65.451 67.5676C66.931 66.0876 67.7635 64.0809 67.7657 61.9878V10.0123C67.7635 7.91918 66.931 5.91246 65.451 4.43242C63.971 2.95239 61.9642 2.11992 59.8711 2.11768ZM63.5304 61.9878C63.5293 62.958 63.1434 63.8881 62.4574 64.5741C61.7714 65.2601 60.8413 65.646 59.8711 65.6471H16.3662C15.396 65.646 14.4659 65.2601 13.7799 64.5741C13.0939 63.8881 12.708 62.958 12.7069 61.9878V57.1765H14.8246C15.3862 57.1765 15.9248 56.9534 16.322 56.5563C16.7191 56.1591 16.9422 55.6205 16.9422 55.0589C16.9422 54.4972 16.7191 53.9586 16.322 53.5615C15.9248 53.1643 15.3862 52.9412 14.8246 52.9412H12.7069V44.4706H14.8246C15.3862 44.4706 15.9248 44.2475 16.322 43.8504C16.7191 43.4532 16.9422 42.9146 16.9422 42.353C16.9422 41.7913 16.7191 41.2527 16.322 40.8556C15.9248 40.4584 15.3862 40.2353 14.8246 40.2353H12.7069V31.7647H14.8246C15.3862 31.7647 15.9248 31.5416 16.322 31.1445C16.7191 30.7474 16.9422 30.2087 16.9422 29.6471C16.9422 29.0855 16.7191 28.5468 16.322 28.1497C15.9248 27.7526 15.3862 27.5294 14.8246 27.5294H12.7069V19.0589H14.8246C15.3862 19.0589 15.9248 18.8357 16.322 18.4386C16.7191 18.0415 16.9422 17.5028 16.9422 16.9412C16.9422 16.3796 16.7191 15.8409 16.322 15.4438C15.9248 15.0467 15.3862 14.8236 14.8246 14.8236H12.7069V10.0123C12.708 9.0421 13.0939 8.112 13.7799 7.42599C14.4659 6.73998 15.396 6.35409 16.3662 6.35297H59.8711C60.8413 6.35409 61.7714 6.73998 62.4574 7.42599C63.1434 8.112 63.5293 9.0421 63.5304 10.0123V61.9878Z" fill="currentColor"/>
<path d="M40.2367 36.0002C42.3308 36.0002 44.378 35.3792 46.1192 34.2158C47.8604 33.0523 49.2175 31.3987 50.0189 29.4639C50.8203 27.5292 51.03 25.4002 50.6215 23.3463C50.2129 21.2924 49.2045 19.4057 47.7237 17.925C46.2429 16.4442 44.3563 15.4357 42.3023 15.0272C40.2484 14.6186 38.1195 14.8283 36.1847 15.6297C34.25 16.4311 32.5963 17.7882 31.4329 19.5295C30.2694 21.2707 29.6484 23.3178 29.6484 25.412C29.6518 28.2191 30.7684 30.9103 32.7534 32.8953C34.7383 34.8802 37.4295 35.9968 40.2367 36.0002ZM40.2367 19.059C41.4932 19.059 42.7214 19.4316 43.7662 20.1297C44.8109 20.8278 45.6252 21.82 46.106 22.9808C46.5869 24.1417 46.7127 25.419 46.4675 26.6514C46.2224 27.8837 45.6174 29.0157 44.7289 29.9042C43.8404 30.7927 42.7084 31.3977 41.4761 31.6428C40.2437 31.888 38.9664 31.7622 37.8055 31.2813C36.6447 30.8005 35.6525 29.9862 34.9544 28.9415C34.2563 27.8967 33.8837 26.6685 33.8837 25.412C33.8837 23.7271 34.5531 22.1112 35.7445 20.9198C36.9359 19.7284 38.5518 19.059 40.2367 19.059Z" fill="currentColor"/>
<path d="M40.2381 38.1177C35.7465 38.1227 31.4404 39.9092 28.2644 43.0852C25.0884 46.2612 23.3019 50.5673 23.2969 55.0589C23.2969 55.6205 23.52 56.1591 23.9171 56.5563C24.3143 56.9534 24.8529 57.1765 25.4145 57.1765H55.0616C55.6232 57.1765 56.1618 56.9534 56.559 56.5563C56.9561 56.1591 57.1792 55.6205 57.1792 55.0589C57.1742 50.5673 55.3877 46.2612 52.2117 43.0852C49.0357 39.9092 44.7296 38.1227 40.2381 38.1177ZM27.7079 52.9412C28.206 49.9781 29.738 47.2874 32.032 45.3468C34.3259 43.4062 37.2334 42.3414 40.2381 42.3414C43.2427 42.3414 46.1502 43.4062 48.4441 45.3468C50.7381 47.2874 52.2701 49.9781 52.7682 52.9412H27.7079Z" fill="currentColor"/>
</svg>
