<svg width="72" height="72" viewBox="0 0 72 72" fill="currentColor" xmlns="http://www.w3.org/2000/svg">
<path d="M11.0237 34.6963C11.4272 33.5055 11.9205 32.3454 12.4999 31.2244C10.8653 28.8006 11.2035 25.5586 13.309 23.5058L16.2626 20.6258C17.6294 19.2929 19.5096 18.686 21.3409 18.8595C21.4179 18.6912 21.5021 18.5247 21.5939 18.3606L29.8633 3.55374C31.0875 1.36182 33.4389 2.84658e-06 36 2.62268e-06C38.5611 2.39879e-06 40.9125 1.36181 42.1367 3.55374L50.4061 18.3604C50.4977 18.5245 50.5822 18.6912 50.6591 18.8595C52.4904 18.686 54.3704 19.2929 55.7371 20.6256L58.6907 23.5056C60.7966 25.5587 61.135 28.8004 59.5 31.2244C60.0795 32.3456 60.5728 33.5056 60.9761 34.6963C63.8892 35.2846 66 37.8096 66 40.7121L66 44.7854C66 47.688 63.889 50.213 60.9761 50.8012C60.5726 51.992 60.0794 53.152 59.5 54.2731C61.1347 56.697 60.7962 59.9389 58.6907 61.9917L55.7371 64.8717C53.6311 66.9254 50.3057 67.2557 47.8182 65.6624C46.6692 66.2268 45.4803 66.7074 44.2603 67.1006C43.6577 69.9414 41.067 72 38.0885 72L33.9111 72C30.9325 72 28.3417 69.9411 27.7392 67.1005C26.3533 66.6536 25.005 66.0933 23.7134 65.4268C22.3048 64.6997 21.7677 62.9977 22.5136 61.625C23.2597 60.2523 25.0064 59.7286 26.415 60.4558C27.8466 61.1947 29.3669 61.7657 30.9338 62.1534C32.0095 62.4195 32.8334 63.2631 33.0529 64.3233L33.3919 65.9596C33.4417 66.2005 33.66 66.3751 33.9113 66.3751L38.0886 66.3751C38.3397 66.3751 38.5582 66.2005 38.6081 65.9595L38.947 64.3233C39.1665 63.2631 39.9902 62.4195 41.066 62.1534C42.9692 61.6825 44.7924 60.9455 46.485 59.9628C47.4391 59.409 48.6347 59.4375 49.5599 60.0365L50.9877 60.9609C51.1965 61.0961 51.4769 61.0689 51.6544 60.8957L54.6083 58.0154C54.7868 57.8413 54.8151 57.5658 54.6752 57.3605L53.7271 55.9685C53.1136 55.0676 53.0844 53.9039 53.6516 52.975C54.6595 51.3246 55.4155 49.5464 55.8986 47.6897C56.1714 46.6414 57.0369 45.8384 58.1248 45.6242L59.8027 45.294C60.0492 45.2454 60.2282 45.0316 60.2282 44.7855L60.2282 40.7122C60.2282 40.4661 60.0492 40.2522 59.8027 40.2038L58.1248 39.8735C57.0369 39.6593 56.1714 38.8564 55.8986 37.808C55.4154 35.9513 54.6595 34.1731 53.6516 32.5228C53.0844 31.5938 53.1136 30.4301 53.727 29.5294L54.6752 28.137C54.8151 27.9318 54.7868 27.6564 54.6081 27.4822L51.6542 24.6019C51.4769 24.4291 51.1969 24.4017 50.9875 24.537L50.3673 24.9386C50.3374 24.9905 50.307 25.0421 50.2756 25.0934C49.2281 26.8113 47.5196 27.9588 45.5584 28.3096L45.5584 40.418C46.0193 40.1141 46.5752 39.9367 47.1737 39.9367C48.7677 39.9367 50.0599 41.1958 50.0599 42.7492C50.0599 50.3035 43.7528 56.4495 36.0003 56.4495C28.2478 56.4495 21.9407 50.3035 21.9407 42.7492C21.9407 41.1958 23.2328 39.9367 24.8269 39.9367C25.4254 39.9367 25.9812 40.1141 26.4422 40.418L26.4422 28.3096C24.4808 27.9588 22.7723 26.8113 21.7249 25.0934C21.6936 25.0421 21.6632 24.9906 21.6333 24.9387L21.0125 24.5368C20.8038 24.4013 20.5234 24.429 20.3461 24.6021L17.3922 27.4823C17.2137 27.6564 17.1854 27.9318 17.3253 28.1371L18.2735 29.5294C18.8868 30.4301 18.9161 31.5938 18.3488 32.5228C17.3409 34.1731 16.5849 35.9513 16.1019 37.808C15.829 38.8564 14.9636 39.6593 13.8756 39.8735L12.1977 40.2037C11.9512 40.2524 11.7723 40.4661 11.7723 40.7122L11.7723 44.7855C11.7723 45.0316 11.9512 45.2455 12.1977 45.2939L13.8756 45.6242C14.9634 45.8384 15.829 46.6414 16.1019 47.6897C16.4536 49.0413 16.9539 50.3613 17.5891 51.6133C18.2957 53.0056 17.7099 54.6924 16.281 55.3809C15.8697 55.5791 15.4337 55.6729 15.0041 55.6729C13.9408 55.6729 12.9177 55.0979 12.4146 54.106C11.873 53.0385 11.4077 51.9324 11.0242 50.8013C8.11097 50.2131 6 47.688 6 44.7854L6 40.7121C5.99971 37.8094 8.11069 35.2845 11.0237 34.6963ZM39.7856 49.9313L39.7856 25.6105C39.7856 24.0571 41.0777 22.798 42.6718 22.798L44.2693 22.798C44.8703 22.798 45.1812 22.4355 45.3129 22.2193C45.4447 22.0032 45.6229 21.5637 45.3356 21.0493L37.0665 6.24263C36.7664 5.70516 36.2694 5.625 36 5.625C35.7306 5.625 35.2336 5.70516 34.9335 6.24263L26.6641 21.0493C26.3768 21.5637 26.555 22.0032 26.6868 22.2193C26.8185 22.4355 27.1294 22.798 27.7304 22.798L29.3279 22.798C30.922 22.798 32.2142 24.0571 32.2142 25.6105L32.2142 49.9313C33.3495 50.5018 34.6367 50.8241 35.9997 50.8241C37.3627 50.8241 38.6503 50.5018 39.7856 49.9313Z" fill="currentColor"/>
</svg>
