<svg width="72" height="72" viewBox="0 0 72 72" fill="currentColor" xmlns="http://www.w3.org/2000/svg">
<g clip-path="url(#clip0_1602_105732)">
<path d="M44.5787 12.6567C36.4366 12.6567 29.8125 19.2809 29.8125 27.423C29.8125 35.5651 36.4366 42.1892 44.5787 42.1892C52.7208 42.1892 59.345 35.5651 59.345 27.423C59.345 19.2809 52.7208 12.6567 44.5787 12.6567ZM44.5787 37.9703C38.7629 37.9703 34.0314 33.2388 34.0314 27.423C34.0314 21.6072 38.7629 16.8757 44.5787 16.8757C50.3945 16.8757 55.126 21.6072 55.126 27.423C55.126 33.2388 50.3945 37.9703 44.5787 37.9703Z" fill="currentColor"/>
<path d="M70.2381 22.1782L70.1724 22.1672C66.2657 21.5161 64.0942 16.2575 66.3918 13.0411L66.4299 12.988C67.0297 12.1488 66.9348 10.9989 66.2053 10.2696L61.7305 5.79469C61.0012 5.06552 59.8519 4.97045 59.0126 5.56996L58.9596 5.60779C55.938 7.76633 50.5232 5.96893 49.8328 1.82693L49.822 1.76196C49.6521 0.745062 48.7722 0 47.7412 0H41.4128C40.3809 0 39.5005 0.746468 39.3318 1.76449L39.3214 1.82736C38.6317 5.96471 33.2134 7.7645 30.1937 5.60709L30.1403 5.56898C29.3016 4.97059 28.1526 5.0658 27.4237 5.79469L22.9489 10.2696C22.22 10.9985 22.1246 12.1474 22.7233 12.9864L22.7618 13.0405C25.0538 16.2492 22.9018 21.5138 18.981 22.1673L18.916 22.1782C17.8992 22.3481 17.154 23.2278 17.154 24.2588V30.5872C17.154 31.6182 17.8991 32.4979 18.916 32.6678L18.9817 32.6788C22.6377 33.2881 25.2074 38.3818 22.7618 41.8053L22.7239 41.8585C22.1243 42.6976 22.2194 43.8471 22.9486 44.5764L23.6945 45.3223L19.2634 49.7535L17.7721 48.2622C16.9484 47.4384 15.6127 47.4384 14.7889 48.2622L1.85031 61.2008C-0.616771 63.6679 -0.616771 67.6824 1.85031 70.15C4.3174 72.6168 8.33199 72.6172 10.7992 70.1499L23.7378 57.2113C24.5616 56.3874 24.5616 55.0519 23.7378 54.2281L22.2467 52.7365L26.6778 48.3054L27.4236 49.0513C28.1525 49.7802 29.3012 49.8755 30.1402 49.277L30.1947 49.2382C33.1961 47.0943 38.6279 48.8588 39.321 53.0165L39.3316 53.0812C39.5003 54.0994 40.3808 54.846 41.4128 54.846H47.7412C48.7722 54.846 49.6521 54.1009 49.8219 53.084L49.8328 53.0184C50.4422 49.3622 55.5358 46.7928 58.9593 49.2381L59.0125 49.276C59.8518 49.8757 61.0014 49.7803 61.7303 49.0512L66.2052 44.5763C66.9348 43.8467 67.0296 42.6963 66.4291 41.8572L66.392 41.8053C64.2447 38.799 66.018 33.3711 70.1725 32.6788L70.2372 32.668C71.2544 32.4984 71.9999 31.6184 71.9999 30.5872V24.2588C72 23.2278 71.2548 22.3481 70.2381 22.1782ZM7.81615 67.1664C6.99388 67.9885 5.65578 67.9886 4.83365 67.1664C4.01125 66.344 4.01125 65.006 4.83351 64.1837L16.2804 52.7368L19.2629 55.7193L7.81615 67.1664ZM67.7811 28.9691C62.3177 30.9947 59.8386 37.6799 62.0868 42.7285L59.8914 44.9239C54.6027 42.4958 48.1176 45.4547 46.1351 50.6271H43.0311C41.0054 45.1638 34.3191 42.6841 29.2713 44.9325L27.0762 42.7373C29.5041 37.4487 26.5462 30.9635 21.3731 28.9808V25.8747C26.7043 23.8851 29.4149 17.2474 27.0744 12.1104L29.2715 9.91334C34.3134 12.1587 41.0018 9.68974 43.0309 4.21878H46.1234C48.1448 9.6685 54.8179 12.1712 59.8831 9.91348L62.0799 12.1103C59.7337 17.2582 62.4641 23.8878 67.7812 25.8744V28.9691H67.7811Z" fill="currentColor"/>
</g>
<defs>
<clipPath id="clip0_1602_105732">
<rect width="72" height="72" fill="white"/>
</clipPath>
</defs>
</svg>
