<svg width="72" height="72" viewBox="0 0 72 72" fill="currentColor" xmlns="http://www.w3.org/2000/svg">
<path d="M44.6539 18.4541C50.0556 14.5027 56.546 12.3677 63.3656 12.3677C64.5304 12.3677 65.475 11.4231 65.475 10.2583C65.475 9.09337 64.5304 8.14894 63.3656 8.14894C56.5112 8.14894 49.95 10.0533 44.2835 13.6088L46.7472 7.40686C46.8455 7.15908 46.8964 6.89484 46.8964 6.62822C46.8963 2.97352 43.9228 0 40.2679 0C38.5236 0 36.9341 0.677531 35.7492 1.78341C34.5643 0.677672 32.975 0 31.2305 0C29.4859 0 27.8964 0.677531 26.7115 1.78341C25.5269 0.677672 23.9376 0 22.193 0C18.5383 0 15.5646 2.97352 15.5646 6.62822C15.5646 6.89484 15.6151 7.15908 15.7138 7.40686L20.5651 19.6206C13.4859 26.4421 6.52734 38.2281 6.52734 47.2971C6.5272 60.918 17.6089 72 31.2298 72C44.8513 72 55.9333 60.918 55.9333 47.2968C55.9333 39.4969 50.7858 29.6878 44.8412 22.7551C51.261 23.8559 57.1739 26.902 61.8738 31.6018C62.2859 32.0138 62.8256 32.2197 63.3652 32.2197C63.9052 32.2197 64.4452 32.0136 64.8568 31.6018C65.6804 30.778 65.6804 29.4425 64.8568 28.6186C59.3119 23.0739 52.2762 19.5615 44.6539 18.4541ZM22.193 4.21875C23.5215 4.21875 24.6023 5.29987 24.6023 6.62822C24.6023 7.79316 25.5469 8.73759 26.7117 8.73759C27.8766 8.73759 28.821 7.79316 28.821 6.62822C28.821 5.29987 29.9022 4.21875 31.2307 4.21875C32.559 4.21875 33.64 5.29987 33.64 6.62822C33.64 7.79316 34.5843 8.73759 35.7494 8.73759C36.9142 8.73759 37.8587 7.79316 37.8587 6.62822C37.8587 5.29987 38.9399 4.21875 40.2681 4.21875C41.4804 4.21875 42.4864 5.11875 42.6532 6.28566L37.9698 18.075H24.4904L19.8077 6.28566C19.9745 5.11875 20.9805 4.21875 22.193 4.21875ZM31.2298 67.7812C19.935 67.7812 10.746 58.592 10.746 47.2968C10.746 39.3006 17.4512 28.2978 23.8757 22.2937H27.4242L23.793 28.1038C23.1755 29.0915 23.4759 30.3929 24.4638 31.0105C24.8117 31.2277 25.1981 31.3313 25.5799 31.3313C26.2832 31.3313 26.9707 30.9798 27.3705 30.3396L31.2302 24.164L35.09 30.3396C35.4902 30.9798 36.1773 31.3313 36.8804 31.3313C37.2625 31.3313 37.6486 31.2277 37.9967 31.0105C38.9843 30.3929 39.2848 29.0915 38.6675 28.1038L35.0363 22.2937H38.5842C45.0092 28.2974 51.7145 39.3005 51.7145 47.2968C51.7145 58.592 42.5254 67.7812 31.2298 67.7812Z" fill="currentColor"/>
</svg>
