<svg width="24" height="24" viewBox="0 0 24 24" fill="currentColor" xmlns="http://www.w3.org/2000/svg">
<path d="M15.7576 11.8118C15.8261 11.7638 18.0621 10.1872 16.6475 8.00823C15.21 5.79503 13.0744 6.76473 10.8999 3C10.8999 3 9.85035 5.79503 12.6477 7.42641C15.4405 9.05552 14.165 10.7599 12.3054 11.8095H12.2986C12.2986 11.8095 12.3009 11.8095 12.3032 11.8095C12.3032 11.8095 12.3009 11.8095 12.2986 11.8095H12.3054C14.165 12.859 15.4382 14.5634 12.6477 16.1925C9.85264 17.8239 10.8999 20.6189 10.8999 20.6189C13.0744 16.8519 15.21 17.8239 16.6475 15.6107C18.0621 13.4317 15.8261 11.8551 15.7576 11.8072V11.8118Z" fill="currentColor"/>
<path d="M10.3205 16.4797C10.3205 16.4797 9.63825 16.6896 8.92865 17.5612C8.28293 18.3552 8 20.0892 8 20.0892V3.28027C8 3.28027 8.12549 4.60363 8.84879 5.78325C9.458 6.77805 10.3182 6.93092 10.3182 6.93092V16.4819L10.3205 16.4797Z" fill="currentColor"/>
</svg>
