<svg width="72" height="72" viewBox="0 0 72 72" fill="currentColor" xmlns="http://www.w3.org/2000/svg">
<g clip-path="url(#clip0_1602_105764)">
<path d="M26.4176 57.7416C26.4176 57.7416 23.7256 58.5705 20.9271 62.0153C18.3796 65.156 17.2617 72.0001 17.2617 72.0001V5.6123C17.2617 5.6123 17.7636 10.8366 20.6153 15.4982C23.026 19.4298 26.4252 20.0306 26.4252 20.0306V57.7492L26.4176 57.7416Z" fill="currentColor"/>
<path d="M49.3659 37.2094C49.6397 37.0193 58.4686 30.7988 52.8792 22.1904C47.2062 13.4451 38.7728 17.2778 30.1872 2.40332C30.1872 2.40332 26.0427 13.4451 37.0922 19.8862C48.1188 26.3197 43.0846 33.0573 35.7461 37.1942H35.7157C35.7157 37.1942 35.7233 37.1942 35.7309 37.2018C35.7309 37.2018 35.7233 37.2018 35.7157 37.2094H35.7461C43.0922 41.3539 48.1188 48.0915 37.0922 54.5174C26.0503 60.9585 30.1872 72.0003 30.1872 72.0003C38.7728 57.1258 47.2138 60.9585 52.8868 52.2132C58.4762 43.6048 49.6473 37.3843 49.3735 37.1942L49.3659 37.2094Z" fill="currentColor"/>
</g>
<defs>
<clipPath id="clip0_1602_105764">
<rect width="72" height="72" fill="white"/>
</clipPath>
</defs>
</svg>
