<svg width="72" height="72" viewBox="0 0 72 72" fill="currentColor" xmlns="http://www.w3.org/2000/svg">
<path d="M49.2614 26.4808C50.1769 27.3963 50.1769 28.8804 49.2614 29.7955L33.5381 45.5192C32.6226 46.4343 31.139 46.4343 30.2235 45.5192L22.7386 38.0338C21.8231 37.1188 21.8231 35.6347 22.7386 34.7196C23.6537 33.8041 25.1377 33.8041 26.0528 34.7196L31.8806 40.5474L45.9467 26.4808C46.8623 25.5657 48.3463 25.5657 49.2614 26.4808ZM66 36C66 52.5825 52.5802 66 36 66C19.4175 66 6 52.5802 6 36C6 19.4175 19.4198 6 36 6C52.5825 6 66 19.4198 66 36ZM61.3125 36C61.3125 22.0085 49.9897 10.6875 36 10.6875C22.0085 10.6875 10.6875 22.0103 10.6875 36C10.6875 49.9915 22.0103 61.3125 36 61.3125C49.9915 61.3125 61.3125 49.9897 61.3125 36Z" fill="currentColor"/>
</svg>
