<svg width="72" height="72" viewBox="0 0 72 72" fill="currentColor" xmlns="http://www.w3.org/2000/svg">
<path d="M16.5502 59.9754C15.3734 60.0447 14.216 59.6489 13.3221 58.8716C11.5593 57.0776 11.5593 54.1802 13.3221 52.3862L51.9227 13.3364C53.7562 11.6007 56.6333 11.6972 58.349 13.552C59.9004 15.2294 59.9909 17.8075 58.5607 19.5917L19.7327 58.8716C18.8504 59.6377 17.7116 60.0327 16.5502 59.9754Z" fill="currentColor"/>
<path d="M55.1052 59.9752C53.9125 59.97 52.7693 59.4911 51.9225 58.6414L13.3218 19.5913C11.6886 17.6619 11.9106 14.7583 13.8178 13.106C15.52 11.6313 18.0304 11.6313 19.7325 13.106L58.5605 52.1559C60.3936 53.892 60.4883 56.8027 58.7722 58.6571C58.7039 58.7309 58.6334 58.8022 58.5605 58.8713C57.6098 59.7077 56.3585 60.1074 55.1052 59.9752Z" fill="currentColor"/>
</svg>
