<svg width="72" height="72" viewBox="0 0 72 72" fill="currentColor" xmlns="http://www.w3.org/2000/svg">
<path d="M35.9998 45.4967C32.7344 45.4969 29.4701 44.6985 26.4935 43.102L5.02964 31.589C1.9172 29.9197 -0.00968723 26.6914 0.000427284 23.1642C0.0106767 19.6369 1.95631 16.4199 5.07832 14.7684L26.5962 3.38663C32.4845 0.272166 39.515 0.272166 45.4033 3.38663L66.9212 14.7684C70.0432 16.4198 71.9888 19.6367 71.9991 23.1642C72.0092 26.6914 70.0823 29.9197 66.97 31.589L45.5059 43.102C42.5302 44.6985 39.2644 45.4965 35.9998 45.4967ZM35.9998 6.67627C33.6733 6.67627 31.3469 7.23716 29.2263 8.35892L7.70863 19.7409C6.40858 20.4285 5.62976 21.7145 5.62558 23.1806C5.6214 24.6467 6.39253 25.9371 7.68868 26.6324L29.1526 38.1452C33.4405 40.4451 38.5598 40.4451 42.8475 38.1452L64.3116 26.6324C65.6078 25.9371 66.3789 24.6468 66.3747 23.1806C66.3706 21.7144 65.5917 20.4285 64.2917 19.7409L42.7732 8.35892C40.6526 7.23729 38.3262 6.67627 35.9998 6.67627ZM45.5061 68.5547L70.5161 55.1402C71.885 54.406 72.3995 52.7011 71.6653 51.3324C70.9311 49.9636 69.2264 49.4491 67.8575 50.1833L42.8473 63.5978C38.5598 65.8977 33.4404 65.8977 29.1416 63.592L4.13147 50.3181C2.75913 49.5899 1.05679 50.1119 0.328812 51.4839C-0.399433 52.8559 0.122476 54.5583 1.49454 55.2865L26.4936 68.5546C29.4702 70.1512 32.7345 70.9493 35.9999 70.9493C39.2645 70.9494 42.5302 70.1511 45.5061 68.5547ZM45.5061 55.8988L70.5161 42.4842C71.885 41.75 72.3995 40.0451 71.6653 38.6764C70.9311 37.3075 69.2264 36.7933 67.8575 37.5273L42.8473 50.9419C38.5598 53.2419 33.4404 53.2416 29.1416 50.9361L4.13147 37.6622C2.75913 36.9339 1.05679 37.456 0.328812 38.8279C-0.399433 40.2 0.122476 41.9023 1.49454 42.6306L26.4936 55.8986C29.4702 57.4953 32.7345 58.2934 35.9999 58.2934C39.2645 58.2934 42.5302 57.4951 45.5061 55.8988Z" fill="currentColor"/>
</svg>
