<svg width="72" height="72" viewBox="0 0 72 72" fill="currentColor" xmlns="http://www.w3.org/2000/svg">
<path d="M27 54C25.35 54 23.9375 53.4125 22.7625 52.2375C21.5875 51.0625 21 49.65 21 48V12C21 10.35 21.5875 8.9375 22.7625 7.7625C23.9375 6.5875 25.35 6 27 6H54C55.65 6 57.0625 6.5875 58.2375 7.7625C59.4125 8.9375 60 10.35 60 12V48C60 49.65 59.4125 51.0625 58.2375 52.2375C57.0625 53.4125 55.65 54 54 54H27ZM27 48H54V12H27V48ZM15 66C13.35 66 11.9375 65.4125 10.7625 64.2375C9.5875 63.0625 9 61.65 9 60V21C9 20.15 9.2875 19.4375 9.8625 18.8625C10.4375 18.2875 11.15 18 12 18C12.85 18 13.5625 18.2875 14.1375 18.8625C14.7125 19.4375 15 20.15 15 21V60H45C45.85 60 46.5625 60.2875 47.1375 60.8625C47.7125 61.4375 48 62.15 48 63C48 63.85 47.7125 64.5625 47.1375 65.1375C46.5625 65.7125 45.85 66 45 66H15Z" fill="currentColor"/>
</svg>
