<svg width="72" height="72" viewBox="0 0 72 72" fill="currentColor" xmlns="http://www.w3.org/2000/svg">
<path d="M63.2216 15.6989C58.3856 15.2229 53.5506 14.8489 48.7166 14.5769C48.7166 14.5769 48.7166 14.5499 48.7166 14.5349L48.0596 10.6349C47.6126 7.88986 46.9376 3.73486 39.9296 3.73486H32.0696C25.0946 3.73486 24.4286 7.69786 23.9396 10.5929L23.2916 14.4749C20.4896 14.6279 17.6906 14.8169 14.8916 15.0989L8.77158 15.6989C8.19248 15.7756 7.66582 16.0742 7.30268 16.5318C6.93954 16.9894 6.76833 17.5701 6.82514 18.1515C6.88196 18.7329 7.16236 19.2695 7.60722 19.6481C8.05207 20.0267 8.62658 20.2177 9.20958 20.1809L12.8096 19.8239L15.1406 57.7889C15.4676 62.4479 15.8756 68.2499 26.3546 68.2499H45.6146C56.0936 68.2499 56.5016 62.4479 56.8316 57.7739L59.5826 19.8899C60.6476 19.9859 61.7126 20.0729 62.7776 20.1899C62.8536 20.1899 62.9286 20.1899 63.0026 20.1899C63.5993 20.2189 64.1831 20.0097 64.6256 19.6083C65.0681 19.2069 65.333 18.6461 65.3621 18.0494C65.3911 17.4526 65.1819 16.8688 64.7805 16.4263C64.3791 15.9838 63.8183 15.7189 63.2216 15.6899V15.6989ZM28.3796 11.3549C28.8296 8.65486 28.9016 8.24986 32.0696 8.24986H39.9296C43.1096 8.24986 43.1966 8.78686 43.6226 11.3849L44.1236 14.3519C38.6996 14.1419 33.2996 14.0999 27.8996 14.2679L28.3796 11.3549ZM52.3556 57.4709C52.0346 62.0399 51.9146 63.7499 45.6296 63.7499H26.3696C20.0846 63.7499 19.9646 62.0399 19.6436 57.4859L17.3096 19.4129C29.8904 18.3958 42.5341 18.4279 55.1096 19.5089L52.3556 57.4709Z" fill="currentColor"/>
<path d="M40.9539 45H30.9609C30.3642 45 29.7919 45.2371 29.3699 45.659C28.948 46.081 28.7109 46.6533 28.7109 47.25C28.7109 47.8467 28.948 48.419 29.3699 48.841C29.7919 49.2629 30.3642 49.5 30.9609 49.5H40.9539C41.5507 49.5 42.123 49.2629 42.5449 48.841C42.9669 48.419 43.2039 47.8467 43.2039 47.25C43.2039 46.6533 42.9669 46.081 42.5449 45.659C42.123 45.2371 41.5507 45 40.9539 45Z" fill="currentColor"/>
<path d="M26.2207 35.2441C26.2207 35.8409 26.4578 36.4132 26.8797 36.8351C27.3017 37.2571 27.874 37.4941 28.4707 37.4941H43.4707C44.0674 37.4941 44.6397 37.2571 45.0617 36.8351C45.4837 36.4132 45.7207 35.8409 45.7207 35.2441C45.7207 34.6474 45.4837 34.0751 45.0617 33.6531C44.6397 33.2312 44.0674 32.9941 43.4707 32.9941H28.4707C27.874 32.9941 27.3017 33.2312 26.8797 33.6531C26.4578 34.0751 26.2207 34.6474 26.2207 35.2441Z" fill="currentColor"/>
</svg>
