<svg width="72" height="72" viewBox="0 0 72 72" fill="currentColor" xmlns="http://www.w3.org/2000/svg">
<path d="M49.5 70.0312H22.5C18.7723 69.893 18.7751 64.5432 22.5 64.4062H49.5C53.2277 64.5445 53.2249 69.8943 49.5 70.0312ZM55.125 58.7812H16.872C7.56886 58.7812 0 51.2125 0 41.9092V18.8438C0 9.53888 7.57013 1.96875 16.875 1.96875H55.125C64.4299 1.96875 72 9.53888 72 18.8438V41.9062C72 51.2111 64.4299 58.7812 55.125 58.7812ZM16.875 7.59375C10.6718 7.59375 5.625 12.6405 5.625 18.8438V41.9092C5.625 48.1108 10.6705 53.1562 16.872 53.1562H55.125C61.3283 53.1562 66.375 48.1095 66.375 41.9062V18.8438C66.375 12.6405 61.3283 7.59375 55.125 7.59375H16.875ZM32.9077 44.5788C32.6503 44.5788 32.3889 44.5432 32.1292 44.4687C30.6364 44.0394 29.7741 42.4814 30.2033 40.9885L36.672 18.4885C37.1014 16.9958 38.6596 16.1342 40.1522 16.5627C41.645 16.992 42.5073 18.55 42.0781 20.0429L35.6093 42.5429C35.2547 43.7759 34.1297 44.5788 32.9077 44.5788ZM49.7814 41.7656C49.0541 41.7656 48.3272 41.4854 47.7768 40.926C46.6872 39.8188 46.7014 38.0381 47.8086 36.9485L53.315 31.5294C53.862 30.9386 53.8622 30.1625 53.3105 29.5716L47.7951 24.0692C46.6954 22.9721 46.6934 21.1913 47.7904 20.0918C48.8876 18.992 50.6683 18.9901 51.7679 20.087L57.2827 25.5888C60.013 28.2005 60.013 32.9055 57.282 35.5174C57.2778 35.5217 57.2735 35.5261 57.2691 35.5303L51.7542 40.9579C51.2063 41.4967 50.4937 41.7656 49.7814 41.7656ZM22.4999 41.7656C21.7876 41.7656 21.075 41.4967 20.5272 40.9577L15.0123 35.5302C15.0079 35.526 15.0036 35.5216 14.9993 35.5172C12.2683 32.9048 12.2684 28.2004 14.9993 25.5883L20.5135 20.087C21.6132 18.99 23.394 18.9923 24.491 20.0918C25.588 21.1913 25.586 22.9721 24.4863 24.0692L18.9714 29.571C18.4196 30.1617 18.4185 30.9375 18.9662 31.5294L24.4727 36.9485C25.5798 38.0381 25.594 39.8188 24.5045 40.926C23.9541 41.4852 23.227 41.7656 22.4999 41.7656Z" fill="currentColor"/>
</svg>
