<svg width="72" height="72" viewBox="0 0 72 72" fill="currentColor" xmlns="http://www.w3.org/2000/svg">
<path d="M63.3086 8.02212L63.2363 7.95625C61.8553 6.69479 60.0652 6 58.1956 6C56.0997 6 54.0874 6.88724 52.6744 8.43401L25.9574 37.6838C25.7139 37.9503 25.5292 38.2649 25.415 38.6073L22.2735 48.0252C21.9103 49.114 22.0926 50.3181 22.761 51.2461C23.4348 52.1814 24.5204 52.7398 25.6651 52.7398C26.1602 52.7398 26.6443 52.638 27.1033 52.4371L36.1993 48.4579C36.53 48.3132 36.8266 48.1008 37.07 47.8343L63.7872 18.5847C66.5674 15.5412 66.3529 10.8032 63.3086 8.02212ZM28.2925 46.2854L30.136 40.7591L30.2915 40.5888L33.7854 43.78L33.6299 43.9503L28.2925 46.2854ZM59.9778 15.1051L37.265 39.9709L33.7711 36.7797L56.4839 11.9136C56.9282 11.4273 57.5361 11.1594 58.1958 11.1594C58.7745 11.1594 59.3288 11.3747 59.7577 11.7664L59.8298 11.8323C60.7729 12.6937 60.8393 14.1619 59.9778 15.1051Z" fill="currentColor"/>
<path d="M58.1255 29.8C56.7008 29.8 55.5458 30.955 55.5458 32.3797V54.2806C55.5458 57.898 52.6027 60.8411 48.9853 60.8411H17.7198C14.1022 60.8411 11.1594 57.898 11.1594 54.2806V23.2691C11.1594 19.6517 14.1024 16.7087 17.7198 16.7087H40.3499C41.7746 16.7087 42.9296 15.5537 42.9296 14.129C42.9296 12.7043 41.7746 11.5493 40.3499 11.5493H17.7198C11.2574 11.5493 6 16.8069 6 23.2691V54.2804C6 60.7427 11.2576 66.0003 17.7198 66.0003H48.9851C55.4474 66.0003 60.705 60.7427 60.705 54.2804V32.3797C60.7051 30.955 59.5501 29.8 58.1255 29.8Z" fill="currentColor"/>
</svg>
