<svg width="72" height="72" viewBox="0 0 72 72" fill="currentColor" xmlns="http://www.w3.org/2000/svg">
<path fill-rule="evenodd" clip-rule="evenodd" d="M48 9C49.6569 9 51 10.3432 51 12V15H63C64.6569 15 66 16.3432 66 18C66 19.6569 64.6569 21 63 21H51V24C51 25.6568 49.6569 27 48 27C46.3431 27 45 25.6568 45 24V12C45 10.3432 46.3431 9 48 9ZM6 18C6 16.3432 7.34316 15 9 15H36C37.6569 15 39 16.3432 39 18C39 19.6569 37.6569 21 36 21H9C7.34316 21 6 19.6568 6 18ZM24 27C25.6568 27 27 28.3432 27 30V42C27 43.6569 25.6568 45 24 45C22.3432 45 21 43.6569 21 42V39H9C7.34316 39 6 37.6569 6 36C6 34.3431 7.34316 33 9 33H21V30C21 28.3432 22.3432 27 24 27ZM33 36C33 34.3431 34.3431 33 36 33H63C64.6569 33 66 34.3431 66 36C66 37.6569 64.6569 39 63 39H36C34.3431 39 33 37.6569 33 36ZM48 45C49.6569 45 51 46.3431 51 48V51H63C64.6569 51 66 52.3431 66 54C66 55.6569 64.6569 57 63 57H51V60C51 61.6569 49.6569 63 48 63C46.3431 63 45 61.6569 45 60V48C45 46.3431 46.3431 45 48 45ZM6 54C6 52.3431 7.34316 51 9 51H36C37.6569 51 39 52.3431 39 54C39 55.6569 37.6569 57 36 57H9C7.34316 57 6 55.6569 6 54Z" fill="currentColor"/>
</svg>
