<svg width="72" height="72" viewBox="0 0 72 72" fill="currentColor" xmlns="http://www.w3.org/2000/svg">
<path d="M36 0C18.9006 0 5.0625 13.8381 5.0625 30.9375V46.6875C5.0625 51.3399 8.84756 55.125 13.5 55.125C18.1524 55.125 21.9375 51.3399 21.9375 46.6875V36.5625C21.9375 31.9101 18.1524 28.125 13.5 28.125C12.5554 28.125 11.6477 28.2833 10.799 28.5709C11.9963 15.7192 22.8407 5.625 36 5.625C49.1593 5.625 60.0037 15.7192 61.201 28.5709C60.3523 28.2833 59.4446 28.125 58.5 28.125C53.8476 28.125 50.0625 31.9101 50.0625 36.5625V46.6875C50.0625 51.3399 53.8476 55.125 58.5 55.125C59.3515 55.125 60.1734 54.997 60.9488 54.7613C59.8968 58.2231 56.676 60.75 52.875 60.75H43.9538C42.7928 57.4765 39.6665 55.125 36 55.125C31.3476 55.125 27.5625 58.9101 27.5625 63.5625C27.5625 68.2149 31.3476 72 36 72C39.6665 72 42.7926 69.6485 43.9538 66.375H52.875C60.6291 66.375 66.9375 60.0666 66.9375 52.3125V30.9375C66.9375 13.8381 53.0994 0 36 0ZM13.5 33.75C15.0508 33.75 16.3125 35.0117 16.3125 36.5625V46.6875C16.3125 48.2383 15.0508 49.5 13.5 49.5C11.9492 49.5 10.6875 48.2383 10.6875 46.6875V36.5625C10.6875 35.0117 11.9492 33.75 13.5 33.75ZM36 66.375C34.4492 66.375 33.1875 65.1133 33.1875 63.5625C33.1875 62.0117 34.4492 60.75 36 60.75C37.5508 60.75 38.8125 62.0117 38.8125 63.5625C38.8125 65.1133 37.5508 66.375 36 66.375ZM58.5 49.5C56.9492 49.5 55.6875 48.2383 55.6875 46.6875V36.5625C55.6875 35.0117 56.9492 33.75 58.5 33.75C60.0508 33.75 61.3125 35.0117 61.3125 36.5625V46.6875C61.3125 48.2383 60.0508 49.5 58.5 49.5Z" fill="currentColor"/>
</svg>
