<svg width="72" height="72" viewBox="0 0 72 72" fill="currentColor" xmlns="http://www.w3.org/2000/svg">
<path d="M34.6355 11.625C40.8687 11.625 42.3781 11.8066 44.662 12.0797C45.2691 12.1523 45.9511 12.2355 46.7796 12.3211L46.8734 12.3305C47.4827 12.3953 48.0832 12.5266 48.664 12.7219L48.7812 12.7617L48.8702 12.7945H48.8843L48.8995 12.8004C50.2028 13.2766 51.3671 14.0696 52.2877 15.1077C53.2082 16.1459 53.8561 17.3968 54.173 18.7477L54.2831 19.8023C54.5655 22.5258 54.7905 26.6332 54.9066 31.4098C54.9234 32.1315 55.2224 32.8179 55.7394 33.3217C56.2564 33.8256 56.9503 34.1068 57.6722 34.1051C58.059 34.1035 58.4416 34.0256 58.7982 33.8757C59.1548 33.7258 59.4782 33.5069 59.7499 33.2316C60.0216 32.9563 60.2362 32.63 60.3814 32.2715C60.5266 31.913 60.5996 31.5294 60.596 31.1426C60.5409 23.8769 59.9468 19.2234 59.9468 19.2234C59.6769 16.6172 58.681 14.1391 57.0723 12.0709C55.4637 10.0027 53.3068 8.42756 50.8472 7.52461C50.7171 7.47656 50.587 7.42969 50.4558 7.38398C49.4835 7.05716 48.4783 6.83827 47.4581 6.73125L47.3609 6.7207C43.4667 6.32109 42.8421 6 34.6355 6C26.4324 6 25.1047 6.32109 21.2129 6.72539L21.1156 6.73594C20.0447 6.84842 18.9905 7.08436 17.9738 7.43906V7.38516C15.4384 8.24708 13.2035 9.81805 11.5339 11.9117C9.86435 14.0054 8.83027 16.534 8.5543 19.1977C8.0668 23.8852 7.81836 28.4051 7.81836 35.6555C7.81836 42.9059 8.0668 47.4269 8.5543 52.1144C8.88735 55.3132 10.3103 58.3001 12.5843 60.5742C14.8584 62.8483 17.8454 64.2712 21.0441 64.6043L21.1414 64.6137C24.5316 64.9652 25.4422 65.2559 31.0496 65.3238C31.419 65.3283 31.7857 65.26 32.1287 65.1227C32.4718 64.9854 32.7844 64.7819 33.0487 64.5237C33.3131 64.2656 33.524 63.9579 33.6693 63.6182C33.8147 63.2786 33.8918 62.9136 33.896 62.5441C33.9042 61.803 33.6195 61.0886 33.1038 60.5562C32.5882 60.0238 31.8832 59.7166 31.1421 59.7012C27.4918 59.6262 25.2828 59.4305 23.8367 59.257C23.2308 59.1844 22.5476 59.1023 21.7203 59.0168L21.6265 59.0062C19.7113 58.8073 17.9227 57.9555 16.5611 56.5939C15.1995 55.2323 14.3478 53.4438 14.1488 51.5285C13.7258 47.4633 13.4457 43.2082 13.4457 35.6519C13.4457 28.0957 13.7281 23.8418 14.1488 19.7766C14.2965 18.3463 14.8104 16.9782 15.6409 15.8045C16.4714 14.6307 17.5906 13.6909 18.8902 13.0758L19.8183 12.7523C20.4252 12.5405 21.0543 12.399 21.6933 12.3305L21.7941 12.3211C22.4269 12.2543 22.9812 12.1922 23.5168 12.1324C26.2343 11.8266 28.0296 11.625 34.6343 11.625" fill="currentColor"/>
<path d="M48.814 66C40.3402 66 33.4473 59.107 33.4473 50.6344C33.4516 46.5602 35.072 42.6541 37.9529 39.7732C40.8338 36.8923 44.7398 35.2719 48.814 35.2676C57.2867 35.2676 64.1808 42.1605 64.1808 50.6344C64.1808 59.1082 57.2867 66 48.814 66ZM48.814 40.8926C46.8873 40.8926 45.0038 41.4639 43.4018 42.5344C41.7998 43.6048 40.5511 45.1263 39.8138 46.9064C39.0765 48.6864 38.8836 50.6452 39.2594 52.5349C39.6353 54.4246 40.5631 56.1605 41.9256 57.5229C43.288 58.8853 45.0238 59.8131 46.9135 60.189C48.8032 60.5649 50.762 60.372 52.5421 59.6346C54.3221 58.8973 55.8436 57.6487 56.914 56.0466C57.9845 54.4446 58.5558 52.5611 58.5558 50.6344C58.553 48.0515 57.5258 45.5753 55.6994 43.749C53.8731 41.9226 51.3969 40.8954 48.814 40.8926Z" fill="currentColor"/>
<path d="M21.4229 21.604H47.0002C47.7307 21.619 48.4263 21.9197 48.9377 22.4417C49.4491 22.9636 49.7355 23.6653 49.7355 24.396C49.7355 25.1267 49.4491 25.8283 48.9377 26.3503C48.4263 26.8723 47.7307 27.173 47.0002 27.188H21.4229C20.6923 27.173 19.9967 26.8723 19.4853 26.3503C18.9739 25.8283 18.6875 25.1267 18.6875 24.396C18.6875 23.6653 18.9739 22.9636 19.4853 22.4417C19.9967 21.9197 20.6923 21.619 21.4229 21.604Z" fill="currentColor"/>
<path d="M21.4262 39.1312C20.6858 39.1312 19.9758 38.8371 19.4523 38.3136C18.9289 37.7901 18.6348 37.0801 18.6348 36.3397C18.6348 35.5994 18.9289 34.8894 19.4523 34.3659C19.9758 33.8424 20.6858 33.5483 21.4262 33.5483H36.0113C36.7516 33.5483 37.4616 33.8424 37.9851 34.3659C38.5086 34.8894 38.8027 35.5994 38.8027 36.3397C38.8027 37.0801 38.5086 37.7901 37.9851 38.3136C37.4616 38.8371 36.7516 39.1312 36.0113 39.1312H21.4262Z" fill="currentColor"/>
<path d="M53.7898 53.521H48.5644C47.8886 53.5204 47.2407 53.2516 46.7628 52.7738C46.285 52.2959 46.0162 51.648 46.0156 50.9722V44.7026C46.0156 44.0266 46.2842 43.3783 46.7622 42.9003C47.2402 42.4223 47.8885 42.1538 48.5644 42.1538C49.2404 42.1538 49.8887 42.4223 50.3667 42.9003C50.8447 43.3783 51.1133 44.0266 51.1133 44.7026V48.4233H53.7898C54.4658 48.4233 55.1141 48.6919 55.5921 49.1699C56.0701 49.6479 56.3387 50.2962 56.3387 50.9722C56.3387 51.6482 56.0701 52.2965 55.5921 52.7745C55.1141 53.2525 54.4658 53.521 53.7898 53.521Z" fill="currentColor"/>
</svg>
