<svg width="24" height="24" viewBox="0 0 24 24" fill="currentColor" xmlns="http://www.w3.org/2000/svg">
<path d="M11.7269 2.25C14.2201 2.25 14.8239 2.32266 15.7375 2.43187C15.9803 2.46094 16.2531 2.49422 16.5845 2.52844L16.622 2.53219C16.8657 2.55813 17.1059 2.61063 17.3382 2.68875L17.3851 2.70469L17.4207 2.71781H17.4264L17.4325 2.72016C17.9538 2.91066 18.4195 3.22782 18.7877 3.6431C19.1559 4.05837 19.4151 4.55871 19.5418 5.09906L19.5859 5.52094C19.6989 6.61031 19.7889 8.25328 19.8353 10.1639C19.842 10.4526 19.9616 10.7271 20.1684 10.9287C20.3752 11.1302 20.6528 11.2427 20.9415 11.242C21.0962 11.2414 21.2493 11.2102 21.3919 11.1503C21.5346 11.0903 21.6639 11.0028 21.7726 10.8926C21.8813 10.7825 21.9671 10.652 22.0252 10.5086C22.0833 10.3652 22.1125 10.2117 22.1111 10.057C22.089 7.15078 21.8514 5.28937 21.8514 5.28937C21.7434 4.24689 21.3451 3.25563 20.7016 2.42836C20.0581 1.60109 19.1954 0.971025 18.2115 0.609844C18.1595 0.590625 18.1075 0.571875 18.055 0.553594C17.6661 0.422865 17.264 0.335307 16.8559 0.2925L16.817 0.288281C15.2593 0.128437 15.0095 0 11.7269 0C8.44561 0 7.91452 0.128437 6.3578 0.290156L6.3189 0.294375C5.89055 0.339367 5.46884 0.433744 5.06218 0.575625V0.554062C4.04804 0.898834 3.15404 1.52722 2.48622 2.3647C1.8184 3.20218 1.40476 4.21362 1.29437 5.27906C1.09937 7.15406 1 8.96203 1 11.8622C1 14.7623 1.09937 16.5708 1.29437 18.4458C1.4276 19.7253 1.99676 20.9201 2.90639 21.8297C3.81603 22.7393 5.0108 23.3085 6.2903 23.4417L6.32921 23.4455C7.6853 23.5861 8.04952 23.7023 10.2925 23.7295C10.4403 23.7313 10.5869 23.704 10.7242 23.6491C10.8614 23.5942 10.9864 23.5128 11.0921 23.4095C11.1979 23.3062 11.2822 23.1832 11.3404 23.0473C11.3985 22.9114 11.4294 22.7654 11.4311 22.6177C11.4343 22.3212 11.3205 22.0354 11.1142 21.8225C10.9079 21.6095 10.6259 21.4866 10.3295 21.4805C8.86936 21.4505 7.98577 21.3722 7.40733 21.3028C7.16499 21.2737 6.89171 21.2409 6.56077 21.2067L6.52327 21.2025C5.75716 21.1229 5.04174 20.7822 4.49711 20.2376C3.95247 19.6929 3.61176 18.9775 3.53218 18.2114C3.36296 16.5853 3.25093 14.8833 3.25093 11.8608C3.25093 8.83828 3.3639 7.13672 3.53218 5.51062C3.59125 4.93851 3.79681 4.39129 4.12902 3.92179C4.46124 3.45229 4.90888 3.07637 5.42874 2.83031L5.79999 2.70094C6.04272 2.6162 6.29436 2.55958 6.54999 2.53219L6.5903 2.52844C6.84343 2.50172 7.06514 2.47687 7.27936 2.45297C8.36639 2.33062 9.08452 2.25 11.7264 2.25" fill="currentColor"/>
<path d="M17.3987 23.999C14.0091 23.999 11.252 21.2418 11.252 17.8528C11.2537 16.2231 11.9018 14.6607 13.0542 13.5083C14.2066 12.3559 15.769 11.7078 17.3987 11.7061C20.7877 11.7061 23.5454 14.4632 23.5454 17.8528C23.5454 21.2423 20.7877 23.999 17.3987 23.999ZM17.3987 13.9561C16.628 13.9561 15.8746 14.1846 15.2338 14.6128C14.593 15.0409 14.0935 15.6495 13.7986 16.3616C13.5036 17.0736 13.4265 17.8571 13.5768 18.613C13.7272 19.3689 14.0983 20.0632 14.6433 20.6082C15.1882 21.1531 15.8826 21.5243 16.6384 21.6746C17.3943 21.825 18.1778 21.7478 18.8899 21.4529C19.6019 21.1579 20.2105 20.6585 20.6387 20.0177C21.0668 19.3769 21.2954 18.6235 21.2954 17.8528C21.2943 16.8196 20.8833 15.8291 20.1528 15.0986C19.4223 14.3681 18.4318 13.9572 17.3987 13.9561Z" fill="currentColor"/>
<path d="M6.44376 6.24121H16.6747C16.9669 6.2472 17.2451 6.36749 17.4497 6.57628C17.6543 6.78507 17.7688 7.06572 17.7688 7.35801C17.7688 7.6503 17.6543 7.93095 17.4497 8.13974C17.2451 8.34852 16.9669 8.46882 16.6747 8.4748H6.44376C6.15153 8.46882 5.87328 8.34852 5.66873 8.13974C5.46418 7.93095 5.34961 7.6503 5.34961 7.35801C5.34961 7.06572 5.46418 6.78507 5.66873 6.57628C5.87328 6.36749 6.15153 6.2472 6.44376 6.24121Z" fill="currentColor"/>
<path d="M6.44273 13.2527C6.1466 13.2527 5.8626 13.135 5.65321 12.9256C5.44381 12.7162 5.32617 12.4322 5.32617 12.1361C5.32617 11.84 5.44381 11.556 5.65321 11.3466C5.8626 11.1372 6.1466 11.0195 6.44273 11.0195H12.2768C12.5729 11.0195 12.8569 11.1372 13.0663 11.3466C13.2757 11.556 13.3933 11.84 13.3933 12.1361C13.3933 12.4322 13.2757 12.7162 13.0663 12.9256C12.8569 13.135 12.5729 13.2527 12.2768 13.2527H6.44273Z" fill="currentColor"/>
<path d="M19.389 19.0088H17.2988C17.0285 19.0085 16.7693 18.901 16.5782 18.7099C16.387 18.5188 16.2795 18.2596 16.2793 17.9893V15.4814C16.2793 15.211 16.3867 14.9517 16.5779 14.7605C16.7691 14.5693 17.0284 14.4619 17.2988 14.4619C17.5692 14.4619 17.8285 14.5693 18.0197 14.7605C18.2109 14.9517 18.3184 15.211 18.3184 15.4814V16.9697H19.389C19.6594 16.9697 19.9187 17.0771 20.1099 17.2683C20.3011 17.4595 20.4085 17.7189 20.4085 17.9893C20.4085 18.2597 20.3011 18.519 20.1099 18.7102C19.9187 18.9014 19.6594 19.0088 19.389 19.0088Z" fill="currentColor"/>
</svg>
