<svg width="72" height="72" viewBox="0 0 72 72" fill="currentColor" xmlns="http://www.w3.org/2000/svg">
<g clip-path="url(#clip0_1602_106684)">
<path d="M41.6902 47.3341C39.9296 46.1058 38.0482 45.1049 36.0806 44.3403C38.6981 41.9612 40.4345 38.6285 40.7366 34.8975C44.7059 31.0298 49.9091 28.9094 55.4868 28.9094C59.8413 28.9094 64.0221 30.2207 67.5784 32.7008C68.8528 33.5896 70.6051 33.2776 71.4939 32.0032C72.3822 30.7293 72.0701 28.9764 70.7963 28.0882C69.0357 26.8599 67.1538 25.8596 65.1861 25.0944C68.0744 22.4692 69.8905 18.6839 69.8905 14.4827C69.8905 6.57422 63.4569 0.140625 55.5483 0.140625C47.6404 0.140625 41.2068 6.57422 41.2068 14.4827C41.2068 18.6669 43.008 22.4385 45.8765 25.0626C45.4838 25.2136 45.0932 25.3735 44.7065 25.5438C42.9465 26.3183 41.2919 27.2708 39.7533 28.3892C37.6313 23.1174 32.465 19.3865 26.4428 19.3865C18.5348 19.3865 12.1007 25.8201 12.1007 33.728C12.1007 37.9006 13.892 41.6618 16.7452 44.2848C9.11681 47.1429 2.93151 53.2815 0.413441 61.1104C-0.42152 63.7064 0.0206798 66.4596 1.62688 68.664C3.23308 70.8679 5.71819 72.1319 8.445 72.1319H32.911C34.4639 72.1319 35.723 70.8728 35.723 69.3194C35.723 67.7664 34.4639 66.5074 32.911 66.5074H8.445C7.53588 66.5074 6.70751 66.0861 6.17193 65.3511C5.63634 64.6161 5.48913 63.6982 5.76708 62.8325C8.54662 54.1906 17.0237 48.1553 26.3813 48.1553C30.7352 48.1553 34.9166 49.4665 38.4728 51.9467C39.7467 52.8355 41.4996 52.5229 42.3884 51.249C43.2766 49.9752 42.9646 48.2223 41.6902 47.3341ZM55.5483 5.76508C60.3554 5.76508 64.266 9.67566 64.266 14.4827C64.266 19.2893 60.3554 23.2004 55.5483 23.2004C50.7418 23.2004 46.8307 19.2893 46.8307 14.4827C46.8307 9.67566 50.7418 5.76508 55.5483 5.76508ZM26.4428 25.0104C31.2499 25.0104 35.1605 28.9215 35.1605 33.728C35.1605 38.5351 31.2499 42.4457 26.4428 42.4457C21.6357 42.4457 17.7252 38.5351 17.7252 33.728C17.7252 28.9215 21.6357 25.0104 26.4428 25.0104ZM71.9998 58.7741C71.9998 60.327 70.7408 61.5861 69.1873 61.5861H61.454V69.3194C61.454 70.8728 60.195 72.1319 58.6421 72.1319C57.0886 72.1319 55.8296 70.8728 55.8296 69.3194V61.5861H48.0963C46.5434 61.5861 45.2844 60.327 45.2844 58.7741C45.2844 57.2207 46.5434 55.9616 48.0963 55.9616H55.8296V48.2283C55.8296 46.6754 57.0886 45.4164 58.6421 45.4164C60.195 45.4164 61.454 46.6754 61.454 48.2283V55.9616H69.1873C70.7408 55.9616 71.9998 57.2207 71.9998 58.7741Z" fill="currentColor"/>
</g>
<defs>
<clipPath id="clip0_1602_106684">
<rect width="72" height="72" fill="white"/>
</clipPath>
</defs>
</svg>
