<svg width="72" height="72" viewBox="0 0 72 72" fill="none" xmlns="http://www.w3.org/2000/svg">
<path d="M36.0021 55.4995C46.7512 55.4995 55.4651 46.7691 55.4651 35.9995C55.4651 25.23 46.7512 16.4995 36.0021 16.4995C25.253 16.4995 16.5391 25.23 16.5391 35.9995C16.5391 46.7691 25.253 55.4995 36.0021 55.4995Z" stroke="currentColor" stroke-width="6" stroke-linecap="round" stroke-linejoin="round"/>
<path d="M57.3791 57.42L56.9899 57.03M56.9899 14.97L57.3791 14.58L56.9899 14.97ZM14.6204 57.42L15.0096 57.03L14.6204 57.42ZM35.9998 6.24V6V6.24ZM35.9998 66V65.76V66ZM6.29619 36H6.05664H6.29619ZM65.9429 36H65.7033H65.9429ZM15.0096 14.97L14.6204 14.58L15.0096 14.97Z" stroke="currentColor" stroke-width="6" stroke-linecap="round" stroke-linejoin="round"/>
</svg>
