<svg width="66" height="72" viewBox="0 0 66 72" fill="currentColor" xmlns="http://www.w3.org/2000/svg">
<path d="M0 47.3169C0 52.0787 2.56384 56.5165 6.69112 58.8974L26.307 70.2143C28.3719 71.4048 30.6856 72 32.9994 72C35.3144 72 37.6281 71.4048 39.6917 70.2143L59.3076 58.8974C63.4362 56.5165 66 52.0787 66 47.3169V24.6831C66 19.9213 63.4362 15.4835 59.3076 13.1026L39.6917 1.78568C35.562 -0.595228 30.4343 -0.595228 26.307 1.78568L6.69112 13.1026C2.56384 15.4835 0 19.9213 0 24.6831V47.3169ZM5.14779 24.6831C5.14779 21.7522 6.72505 19.0222 9.26501 17.558L28.8809 6.24111C30.1515 5.50774 31.5754 5.14106 32.9994 5.14106C34.4246 5.14106 35.8485 5.50774 37.1179 6.24111L56.7337 17.558C59.2737 19.0222 60.8522 21.7522 60.8522 24.6831V25.3512C41.5802 28.2683 25.0565 41.2404 17.6107 59.2569L9.26501 54.442C6.72505 52.9778 5.14779 50.2478 5.14779 47.3169V24.6831ZM28.8809 65.7589L22.1177 61.8569C28.6512 45.4102 43.4627 33.4535 60.8522 30.545V47.3169C60.8522 50.2478 59.2737 52.9778 56.7337 54.442L37.1179 65.7589C34.5817 67.2281 31.4246 67.2281 28.8809 65.7589Z" fill="currentColor"/>
<path d="M21.9285 35.1397C26.8954 35.1397 30.9372 31.1012 30.9372 26.1385C30.9372 21.1757 26.8954 17.1372 21.9285 17.1372C16.9617 17.1372 12.9199 21.1757 12.9199 26.1385C12.9199 31.1012 16.9617 35.1397 21.9285 35.1397ZM21.9285 22.2808C24.0575 22.2808 25.7894 24.0112 25.7894 26.1385C25.7894 28.2657 24.0575 29.9961 21.9285 29.9961C19.7996 29.9961 18.0677 28.2657 18.0677 26.1385C18.0677 24.0112 19.7996 22.2808 21.9285 22.2808Z" fill="currentColor"/>
</svg>
