<svg width="24" height="24" viewBox="0 0 24 24" fill="currentColor" xmlns="http://www.w3.org/2000/svg">
<path d="M1 15.7723C1 17.3596 1.85461 18.8388 3.23037 19.6325L9.769 23.4048C10.4573 23.8016 11.2285 24 11.9998 24C12.7715 24 13.5427 23.8016 14.2306 23.4048L20.7692 19.6325C22.1454 18.8388 23 17.3596 23 15.7723V8.22771C23 6.64044 22.1454 5.16116 20.7692 4.36752L14.2306 0.595228C12.854 -0.198409 11.1448 -0.198409 9.769 0.595228L3.23037 4.36752C1.85461 5.16116 1 6.64044 1 8.22771V15.7723ZM2.71593 8.22771C2.71593 7.25073 3.24168 6.34073 4.08834 5.85266L10.627 2.08037C11.0505 1.83591 11.5251 1.71369 11.9998 1.71369C12.4749 1.71369 12.9495 1.83591 13.3726 2.08037L19.9112 5.85266C20.7579 6.34073 21.2841 7.25073 21.2841 8.22771V8.4504C14.8601 9.42277 9.35217 13.7468 6.87023 19.7523L4.08834 18.1473C3.24168 17.6593 2.71593 16.7493 2.71593 15.7723V8.22771ZM10.627 21.9196L8.37256 20.619C10.5504 15.1367 15.4876 11.1512 21.2841 10.1817V15.7723C21.2841 16.7493 20.7579 17.6593 19.9112 18.1473L13.3726 21.9196C12.5272 22.4094 11.4749 22.4094 10.627 21.9196Z" fill="currentColor"/>
<path d="M8.30952 11.7137C9.96512 11.7137 11.3124 10.3676 11.3124 8.71331C11.3124 7.05906 9.96512 5.71289 8.30952 5.71289C6.65391 5.71289 5.30664 7.05906 5.30664 8.71331C5.30664 10.3676 6.65391 11.7137 8.30952 11.7137ZM8.30952 7.42742C9.01918 7.42742 9.59646 8.00423 9.59646 8.71331C9.59646 9.42239 9.01918 9.9992 8.30952 9.9992C7.59985 9.9992 7.02257 9.42239 7.02257 8.71331C7.02257 8.00423 7.59985 7.42742 8.30952 7.42742Z" fill="currentColor"/>
</svg>
