<svg width="72" height="72" viewBox="0 0 72 72" fill="currentColor" xmlns="http://www.w3.org/2000/svg">
<path d="M66.3551 17.1763L37.1268 0.301324C36.4305 -0.100441 35.573 -0.100441 34.8768 0.301324L5.64844 17.1763C4.95234 17.5782 4.52344 18.321 4.52344 19.1248V52.8748C4.52344 53.6786 4.95234 54.4214 5.64844 54.8233L34.8768 71.6983C35.225 71.8993 35.6132 71.9998 36.0018 71.9998C36.3903 71.9998 36.7786 71.8993 37.1268 71.6983L66.3551 54.8233C67.0512 54.4214 67.4801 53.6786 67.4801 52.8748V19.1248C67.4801 18.321 67.0512 17.5782 66.3551 17.1763ZM9.02344 23.0218L33.7518 37.2988V65.8527L9.02344 51.5759V23.0218ZM62.9801 51.5759L38.2518 65.8527V37.2988L51.741 29.5107C52.817 28.8894 53.1857 27.5132 52.5644 26.4372C51.9432 25.361 50.567 24.9924 49.491 25.6137L36.0018 33.4018L11.2734 19.1248L36.0018 4.84787L62.9801 20.4238V51.5759Z" fill="currentColor"/>
</svg>
