<svg width="24" height="24" viewBox="0 0 24 24" fill="currentColor" xmlns="http://www.w3.org/2000/svg">
<path fill-rule="evenodd" clip-rule="evenodd" d="M1.99805 5.00098C1.99805 3.34413 3.3412 2.00098 4.99805 2.00098H7.99805C9.6549 2.00098 10.998 3.34413 10.998 5.00098V8.00098C10.998 9.65783 9.6549 11.001 7.99805 11.001H4.99805C3.3412 11.001 1.99805 9.65783 1.99805 8.00098V5.00098ZM4.99805 4.00098C4.44577 4.00098 3.99805 4.4487 3.99805 5.00098V8.00098C3.99805 8.55326 4.44577 9.00098 4.99805 9.00098H7.99805C8.55033 9.00098 8.99805 8.55326 8.99805 8.00098V5.00098C8.99805 4.4487 8.55033 4.00098 7.99805 4.00098H4.99805ZM12.998 5.00098C12.998 3.34413 14.3411 2.00098 15.998 2.00098H18.998C20.6549 2.00098 21.998 3.34413 21.998 5.00098V8.00098C21.998 9.65783 20.6549 11.001 18.998 11.001H15.998C14.3411 11.001 12.998 9.65783 12.998 8.00098V5.00098ZM15.998 4.00098C15.4457 4.00098 14.998 4.4487 14.998 5.00098V8.00098C14.998 8.55326 15.4457 9.00098 15.998 9.00098H18.998C19.5503 9.00098 19.998 8.55326 19.998 8.00098V5.00098C19.998 4.4487 19.5503 4.00098 18.998 4.00098H15.998ZM1.99805 16.001C1.99805 14.3441 3.3412 13.001 4.99805 13.001H7.99805C9.6549 13.001 10.998 14.3441 10.998 16.001V19.001C10.998 20.6579 9.6549 22.001 7.99805 22.001H4.99805C3.3412 22.001 1.99805 20.6579 1.99805 19.001V16.001ZM4.99805 15.001C4.44577 15.001 3.99805 15.4487 3.99805 16.001V19.001C3.99805 19.5533 4.44577 20.001 4.99805 20.001H7.99805C8.55033 20.001 8.99805 19.5533 8.99805 19.001V16.001C8.99805 15.4487 8.55033 15.001 7.99805 15.001H4.99805ZM12.998 14.501C12.998 13.6726 13.6696 13.001 14.498 13.001C15.3264 13.001 15.998 13.6726 15.998 14.501C15.998 15.3294 15.3264 16.001 14.498 16.001C13.6696 16.001 12.998 15.3294 12.998 14.501ZM18.998 14.501C18.998 13.6726 19.6696 13.001 20.498 13.001C21.3264 13.001 21.998 13.6726 21.998 14.501C21.998 15.3294 21.3264 16.001 20.498 16.001C19.6696 16.001 18.998 15.3294 18.998 14.501ZM15.998 17.501C15.998 16.6726 16.6696 16.001 17.498 16.001C18.3264 16.001 18.998 16.6726 18.998 17.501C18.998 18.3294 18.3264 19.001 17.498 19.001C16.6696 19.001 15.998 18.3294 15.998 17.501ZM12.998 20.501C12.998 19.6726 13.6696 19.001 14.498 19.001C15.3264 19.001 15.998 19.6726 15.998 20.501C15.998 21.3294 15.3264 22.001 14.498 22.001C13.6696 22.001 12.998 21.3294 12.998 20.501ZM18.998 20.501C18.998 19.6726 19.6696 19.001 20.498 19.001C21.3264 19.001 21.998 19.6726 21.998 20.501C21.998 21.3294 21.3264 22.001 20.498 22.001C19.6696 22.001 18.998 21.3294 18.998 20.501Z" fill="currentColor"/>
</svg>
