<svg width="72" height="72" viewBox="0 0 72 72" fill="currentColor" xmlns="http://www.w3.org/2000/svg">
<path fill-rule="evenodd" clip-rule="evenodd" d="M6 15C6 10.0294 10.0294 6 15 6H24C28.9706 6 33 10.0294 33 15V24C33 28.9706 28.9706 33 24 33H15C10.0294 33 6 28.9706 6 24V15ZM15 12C13.3432 12 12 13.3432 12 15V24C12 25.6568 13.3432 27 15 27H24C25.6568 27 27 25.6568 27 24V15C27 13.3432 25.6568 12 24 12H15ZM39 15C39 10.0294 43.0293 6 48 6H57C61.9707 6 66 10.0294 66 15V24C66 28.9706 61.9707 33 57 33H48C43.0293 33 39 28.9706 39 24V15ZM48 12C46.3431 12 45 13.3432 45 15V24C45 25.6568 46.3431 27 48 27H57C58.6569 27 60 25.6568 60 24V15C60 13.3432 58.6569 12 57 12H48ZM6 48C6 43.0293 10.0294 39 15 39H24C28.9706 39 33 43.0293 33 48V57C33 61.9707 28.9706 66 24 66H15C10.0294 66 6 61.9707 6 57V48ZM15 45C13.3432 45 12 46.3431 12 48V57C12 58.6569 13.3432 60 15 60H24C25.6568 60 27 58.6569 27 57V48C27 46.3431 25.6568 45 24 45H15ZM39 43.5C39 41.0148 41.0148 39 43.5 39C45.9852 39 48 41.0148 48 43.5C48 45.9852 45.9852 48 43.5 48C41.0148 48 39 45.9852 39 43.5ZM57 43.5C57 41.0148 59.0148 39 61.5 39C63.9852 39 66 41.0148 66 43.5C66 45.9852 63.9852 48 61.5 48C59.0148 48 57 45.9852 57 43.5ZM48 52.5C48 50.0148 50.0148 48 52.5 48C54.9852 48 57 50.0148 57 52.5C57 54.9852 54.9852 57 52.5 57C50.0148 57 48 54.9852 48 52.5ZM39 61.5C39 59.0148 41.0148 57 43.5 57C45.9852 57 48 59.0148 48 61.5C48 63.9852 45.9852 66 43.5 66C41.0148 66 39 63.9852 39 61.5ZM57 61.5C57 59.0148 59.0148 57 61.5 57C63.9852 57 66 59.0148 66 61.5C66 63.9852 63.9852 66 61.5 66C59.0148 66 57 63.9852 57 61.5Z" fill="currentColor"/>
</svg>
