<svg width="72" height="72" viewBox="0 0 72 72" fill="currentColor" xmlns="http://www.w3.org/2000/svg">
<path d="M62.9991 35.7C61.4991 35.4 59.9991 36.9 59.6991 38.4C58.4991 51.6 46.4991 61.2 33.2991 59.7C20.0991 58.2 10.7991 46.8 11.9991 33.6C13.1991 20.4 25.1991 10.8 38.3991 12C44.6991 12.6 50.6991 15.9 54.5991 21H44.9991C43.1991 21 41.9991 22.2 41.9991 24C41.9991 25.8 43.1991 27 44.9991 27H59.9991C61.7991 27 62.9991 25.8 62.9991 24V9C62.9991 7.2 61.7991 6 59.9991 6C58.1991 6 56.9991 7.2 56.9991 9V14.7C44.9991 3 26.0991 3.3 14.6991 15.3C3.2991 27.3 3.2991 46.2 15.2991 57.6C27.2991 69 46.1991 69 57.5991 57C62.3991 52.2 65.3991 45.9 65.9991 39C65.9991 37.2 64.7991 36 62.9991 35.7C63.2991 35.7 63.2991 35.7 62.9991 35.7Z" fill="currentColor"/>
</svg>
