<svg width="72" height="72" viewBox="0 0 72 72" fill="currentColor" xmlns="http://www.w3.org/2000/svg">
<path d="M9 27C9.79565 27 10.5587 26.6839 11.1213 26.1213C11.6839 25.5587 12 24.7956 12 24V15C12 14.2043 12.3161 13.4413 12.8787 12.8787C13.4413 12.3161 14.2043 12 15 12H24C24.7956 12 25.5587 11.6839 26.1213 11.1213C26.6839 10.5587 27 9.79565 27 9C27 8.20435 26.6839 7.44129 26.1213 6.87868C25.5587 6.31607 24.7956 6 24 6H15C12.6131 6 10.3239 6.94821 8.63604 8.63604C6.94821 10.3239 6 12.6131 6 15V24C6 24.7956 6.31607 25.5587 6.87868 26.1213C7.44129 26.6839 8.20435 27 9 27Z" fill="currentColor"/>
<path d="M63 45C62.2043 45 61.4413 45.3161 60.8787 45.8787C60.3161 46.4413 60 47.2044 60 48V57C60 57.7956 59.6839 58.5587 59.1213 59.1213C58.5587 59.6839 57.7956 60 57 60H48C47.2044 60 46.4413 60.3161 45.8787 60.8787C45.3161 61.4413 45 62.2043 45 63C45 63.7956 45.3161 64.5587 45.8787 65.1213C46.4413 65.6839 47.2044 66 48 66H57C59.3869 66 61.6761 65.0518 63.364 63.364C65.0518 61.6761 66 59.3869 66 57V48C66 47.2044 65.6839 46.4413 65.1213 45.8787C64.5587 45.3161 63.7956 45 63 45Z" fill="currentColor"/>
<path d="M24 60H15C14.2043 60 13.4413 59.6839 12.8787 59.1213C12.3161 58.5587 12 57.7956 12 57V48C12 47.2044 11.6839 46.4413 11.1213 45.8787C10.5587 45.3161 9.79565 45 9 45C8.20435 45 7.44129 45.3161 6.87868 45.8787C6.31607 46.4413 6 47.2044 6 48V57C6 59.3869 6.94821 61.6761 8.63604 63.364C10.3239 65.0518 12.6131 66 15 66H24C24.7956 66 25.5587 65.6839 26.1213 65.1213C26.6839 64.5587 27 63.7956 27 63C27 62.2043 26.6839 61.4413 26.1213 60.8787C25.5587 60.3161 24.7956 60 24 60Z" fill="currentColor"/>
<path d="M57 6H48C47.2044 6 46.4413 6.31607 45.8787 6.87868C45.3161 7.44129 45 8.20435 45 9C45 9.79565 45.3161 10.5587 45.8787 11.1213C46.4413 11.6839 47.2044 12 48 12H57C57.7956 12 58.5587 12.3161 59.1213 12.8787C59.6839 13.4413 60 14.2043 60 15V24C60 24.7956 60.3161 25.5587 60.8787 26.1213C61.4413 26.6839 62.2043 27 63 27C63.7956 27 64.5587 26.6839 65.1213 26.1213C65.6839 25.5587 66 24.7956 66 24V15C66 12.6131 65.0518 10.3239 63.364 8.63604C61.6761 6.94821 59.3869 6 57 6Z" fill="currentColor"/>
<path d="M63 33H9C8.20435 33 7.44129 33.3161 6.87868 33.8787C6.31607 34.4413 6 35.2044 6 36C6 36.7957 6.31607 37.5587 6.87868 38.1213C7.44129 38.6839 8.20435 39 9 39H63C63.7957 39 64.5587 38.6839 65.1213 38.1213C65.6839 37.5587 66 36.7957 66 36C66 35.2044 65.6839 34.4413 65.1213 33.8787C64.5587 33.3161 63.7957 33 63 33Z" fill="currentColor"/>
</svg>
