<svg width="72" height="72" viewBox="0 0 72 72" fill="currentColor" xmlns="http://www.w3.org/2000/svg">
<path fill-rule="evenodd" clip-rule="evenodd" d="M35.2977 5.33398C18.7481 5.33398 5.33203 18.7501 5.33203 35.2997C5.33203 51.8493 18.7481 65.2653 35.2977 65.2653C42.1349 65.2653 48.4373 62.9755 53.4798 59.1208L62.5062 68.1238C63.6793 69.2938 65.5788 69.2914 66.7489 68.1183C67.9189 66.9452 67.9165 65.0457 66.7434 63.8756L57.8624 55.0177C62.4709 49.7482 65.2634 42.85 65.2634 35.2997C65.2634 18.7501 51.8473 5.33398 35.2977 5.33398ZM11.332 35.2997C11.332 22.0638 22.0618 11.334 35.2977 11.334C48.5336 11.334 59.2634 22.0638 59.2634 35.2997C59.2634 48.5355 48.5336 59.2653 35.2977 59.2653C22.0618 59.2653 11.332 48.5355 11.332 35.2997Z" fill="currentColor"/>
</svg>
