<svg width="72" height="72" viewBox="0 0 72 72" fill="none" xmlns="http://www.w3.org/2000/svg">
<g clip-path="url(#clip0_1602_107147)">
<path d="M66.17 18.5387C66.1331 16.5948 66.0978 14.7584 66.0978 12.9819C66.0978 11.59 64.9698 10.4617 63.5776 10.4617C52.7996 10.4617 44.5936 7.36419 37.7534 0.71359C36.7749 -0.238031 35.2178 -0.237695 34.2396 0.71359C27.4002 7.36419 19.1955 10.4617 8.41816 10.4617C7.02634 10.4617 5.89797 11.59 5.89797 12.9819C5.89797 14.7587 5.86303 16.5958 5.82573 18.54C5.48029 36.6303 5.00717 61.4057 35.1711 71.8611C35.4386 71.9538 35.7175 72.0002 35.9964 72.0002C36.2753 72.0002 36.5545 71.9538 36.8216 71.8611C66.9879 61.4053 66.5155 36.6292 66.17 18.5387ZM35.9967 66.8056C10.1272 57.408 10.5183 36.8215 10.8654 18.6361C10.8863 17.5447 10.9064 16.4869 10.9205 15.45C21.0147 15.0239 29.0867 11.965 35.9967 5.94549C42.9074 11.965 50.9807 15.0242 61.0756 15.45C61.0897 16.4866 61.1098 17.5437 61.1307 18.6345C61.4775 36.8204 61.8683 57.4077 35.9967 66.8056Z" fill="currentColor"/>
<path d="M44.6778 27.2458L32.5141 39.4089L27.3235 34.2183C26.3393 33.2344 24.7435 33.2344 23.7596 34.2183C22.7754 35.2029 22.7754 36.7983 23.7596 37.7825L30.7322 44.755C31.2241 45.247 31.8693 45.493 32.5141 45.493C33.1589 45.493 33.8041 45.247 34.296 44.755L48.2414 30.81C49.2259 29.8258 49.2259 28.23 48.2417 27.2461C47.2578 26.2619 45.6621 26.2616 44.6778 27.2458Z" fill="currentColor"/>
</g>
<defs>
<clipPath id="clip0_1602_107147">
<rect width="72" height="72" fill="currentColor"/>
</clipPath>
</defs>
</svg>
