<svg width="22" height="22" viewBox="0 0 22 22" fill="currentColor" xmlns="http://www.w3.org/2000/svg">
<path d="M11.5222 10.4778C11.8578 10.8134 12.4019 10.8134 12.7375 10.4778L16.3836 6.83178C16.7192 6.49619 16.7192 5.95204 16.3836 5.61645C16.0479 5.28087 15.5038 5.28082 15.1682 5.61645L11.5222 9.26248C11.1866 9.59806 11.1866 10.1422 11.5222 10.4778Z" fill="currentColor"/>
<path d="M1.79949 6.83178C0.794275 7.83699 0.794275 9.4726 1.79949 10.4778C2.11939 10.7977 2.51857 11.0284 2.9538 11.1449L8.70796 12.6862C9.00242 12.765 9.23497 12.9976 9.31382 13.2921L10.855 19.046C10.9716 19.4813 11.2023 19.8806 11.5222 20.2005C12.5297 21.208 14.1605 21.2082 15.1682 20.2005C15.4254 19.9433 15.6217 19.6416 15.7515 19.304L21.8282 3.50458C22.1938 2.5542 21.9648 1.475 21.2449 0.755056C20.525 0.0351149 19.4457 -0.193866 18.4954 0.171756L2.69594 6.24844C2.35829 6.37833 2.05665 6.57457 1.79949 6.83178ZM3.01481 8.04711C3.10084 7.96109 3.20117 7.89565 3.31293 7.85268L19.1125 1.77595C19.434 1.65224 19.7929 1.73376 20.0296 1.97043C20.2697 2.21054 20.346 2.57053 20.2241 2.88755V2.8876L14.1473 18.6871C14.1043 18.7988 14.0389 18.8991 13.9529 18.9851C13.6171 19.321 13.0735 19.321 12.7375 18.9851C12.6292 18.8768 12.5544 18.7478 12.5153 18.6015L10.974 12.8475C10.7368 11.9612 10.0401 11.2636 9.15256 11.026L3.3984 9.48472C3.25217 9.44557 3.12314 9.3708 3.01481 9.26244C2.67974 8.92737 2.67974 8.38218 3.01481 8.04711Z" fill="currentColor"/>
<path d="M0.251712 21.7483C0.587298 22.0839 1.13141 22.0839 1.46704 21.7483L5.11307 18.1023C5.4487 17.7667 5.4487 17.2225 5.11307 16.887C4.77744 16.5514 4.23333 16.5513 3.89774 16.887L0.251712 20.533C-0.0838736 20.8686 -0.0838736 21.4127 0.251712 21.7483Z" fill="currentColor"/>
<path d="M6.3284 21.7483L8.75906 19.3176C9.09469 18.982 9.09469 18.4379 8.75906 18.1023C8.42343 17.7667 7.87931 17.7667 7.54373 18.1023L5.11307 20.5329C4.77744 20.8686 4.77744 21.4127 5.11307 21.7483C5.4487 22.0839 5.99282 22.0839 6.3284 21.7483Z" fill="currentColor"/>
<path d="M0.251712 16.8869C0.587298 17.2225 1.13141 17.2226 1.46704 16.8869L3.8977 14.4563C4.23333 14.1207 4.23333 13.5765 3.8977 13.241C3.56207 12.9054 3.01795 12.9053 2.68237 13.241L0.251712 15.6716C-0.0838736 16.0072 -0.0838736 16.5513 0.251712 16.8869Z" fill="currentColor"/>
</svg>
