<svg width="72" height="72" viewBox="0 0 72 72" fill="currentColor" xmlns="http://www.w3.org/2000/svg">
<path d="M37.4248 34.5761C38.34 35.4913 39.824 35.4914 40.7393 34.5761L50.683 24.6323C51.5984 23.7171 51.5984 22.2331 50.683 21.3178C49.7677 20.4026 48.2837 20.4025 47.3685 21.3178L37.4248 31.2615C36.5094 32.1768 36.5094 33.6607 37.4248 34.5761Z" fill="currentColor"/>
<path d="M10.9096 24.6321C8.16814 27.3736 8.16814 31.8344 10.9096 34.5757C11.7821 35.4483 12.8708 36.0775 14.0578 36.3953L29.7509 40.5987C30.554 40.8137 31.1882 41.448 31.4033 42.2513L35.6066 57.9437C35.9244 59.131 36.5537 60.2198 37.4261 61.0922C40.1738 63.8399 44.6216 63.8406 47.3697 61.0923C48.0713 60.3909 48.6066 59.5681 48.9607 58.6473L65.5334 15.558C66.5306 12.966 65.9061 10.0227 63.9426 8.05924C61.9791 6.09577 59.0356 5.47128 56.4439 6.46842L13.3545 23.0412C12.4337 23.3955 11.611 23.9307 10.9096 24.6321ZM14.2242 27.9467C14.4588 27.7121 14.7324 27.5336 15.0372 27.4164L58.1268 10.8435C59.0037 10.5061 59.9826 10.7284 60.6281 11.3739C61.2829 12.0287 61.491 13.0105 61.1585 13.8751V13.8753L44.5855 56.9649C44.4683 57.2696 44.2899 57.543 44.0552 57.7777C43.1394 58.6936 41.6569 58.6937 40.7407 57.7777C40.4452 57.4823 40.2413 57.1305 40.1346 56.7313L35.9312 41.0386C35.284 38.6215 33.3841 36.719 30.9635 36.0708L15.2703 31.8674C14.8715 31.7607 14.5196 31.5567 14.2242 31.2612C13.3103 30.3474 13.3103 28.8605 14.2242 27.9467Z" fill="currentColor"/>
<path d="M6.68643 65.3134C7.60166 66.2286 9.08561 66.2287 10.001 65.3134L19.9447 55.3697C20.86 54.4543 20.86 52.9704 19.9447 52.0551C19.0293 51.1399 17.5454 51.1398 16.6301 52.0551L6.68643 61.9988C5.77119 62.9141 5.77119 64.398 6.68643 65.3134Z" fill="currentColor"/>
<path d="M23.2608 65.3137L29.8899 58.6846C30.8052 57.7692 30.8052 56.2853 29.8899 55.3701C28.9745 54.4548 27.4906 54.4547 26.5753 55.3701L19.9463 61.9991C19.0309 62.9145 19.0309 64.3984 19.9463 65.3137C20.8616 66.2289 22.3456 66.229 23.2608 65.3137Z" fill="currentColor"/>
<path d="M6.68643 52.0549C7.60166 52.9701 9.08561 52.9702 10.001 52.0549L16.63 45.4258C17.5454 44.5105 17.5454 43.0265 16.63 42.1113C15.7147 41.196 14.2307 41.1959 13.3155 42.1113L6.68643 48.7403C5.77119 49.6556 5.77119 51.1395 6.68643 52.0549Z" fill="currentColor"/>
</svg>
