<svg width="72" height="72" viewBox="0 0 72 72" fill="none" xmlns="http://www.w3.org/2000/svg">
<path d="M36 45C40.9706 45 45 40.9706 45 36C45 31.0294 40.9706 27 36 27C31.0294 27 27 31.0294 27 36C27 40.9706 31.0294 45 36 45Z" stroke="currentColor" stroke-width="4.5" stroke-miterlimit="10" stroke-linecap="round" stroke-linejoin="round"/>
<path d="M6 38.6413V33.3613C6 30.2413 8.55 27.6613 11.7 27.6613C17.13 27.6613 19.35 23.8213 16.62 19.1113C15.06 16.4113 15.99 12.9013 18.72 11.3413L23.91 8.37127C26.28 6.96127 29.34 7.80127 30.75 10.1713L31.08 10.7413C33.78 15.4513 38.22 15.4513 40.95 10.7413L41.28 10.1713C42.69 7.80127 45.75 6.96127 48.12 8.37127L53.31 11.3413C56.04 12.9013 56.97 16.4113 55.41 19.1113C52.68 23.8213 54.9 27.6613 60.33 27.6613C63.45 27.6613 66.03 30.2113 66.03 33.3613V38.6413C66.03 41.7613 63.48 44.3413 60.33 44.3413C54.9 44.3413 52.68 48.1813 55.41 52.8913C56.97 55.6213 56.04 59.1013 53.31 60.6613L48.12 63.6313C45.75 65.0413 42.69 64.2013 41.28 61.8313L40.95 61.2613C38.25 56.5513 33.81 56.5513 31.08 61.2613L30.75 61.8313C29.34 64.2013 26.28 65.0413 23.91 63.6313L18.72 60.6613C15.99 59.1013 15.06 55.5913 16.62 52.8913C19.35 48.1813 17.13 44.3413 11.7 44.3413C8.55 44.3413 6 41.7613 6 38.6413Z" stroke="currentColor" stroke-width="4.5" stroke-miterlimit="10" stroke-linecap="round" stroke-linejoin="round"/>
</svg>
