<svg width="24" height="25" viewBox="0 0 24 25" fill="currentColor" xmlns="http://www.w3.org/2000/svg">
<path fill-rule="evenodd" clip-rule="evenodd" d="M0 12.5C0 5.87258 5.37258 0.5 12 0.5C18.6275 0.5 24 5.87258 24 12.5C24 19.1275 18.6275 24.5 12 24.5C5.37258 24.5 0 19.1275 0 12.5ZM12 2.17442C6.29733 2.17442 1.67442 6.79733 1.67442 12.5C1.67442 18.2026 6.29733 22.8256 12 22.8256C17.7026 22.8256 22.3256 18.2026 22.3256 12.5C22.3256 6.79733 17.7026 2.17442 12 2.17442Z" fill="currentColor"/>
<path fill-rule="evenodd" clip-rule="evenodd" d="M12.1973 9.93487C12.0883 9.82588 11.9117 9.82588 11.8026 9.93487L9.43466 12.3029C9.32567 12.4118 9.32567 12.5886 9.43466 12.6975L11.8026 15.0655C11.9117 15.1745 12.0883 15.1745 12.1973 15.0655L14.5653 12.6975C14.6742 12.5886 14.6742 12.4118 14.5653 12.3029L12.1973 9.93487ZM10.6187 8.75088C11.3816 7.98799 12.6184 7.98799 13.3813 8.75088L15.7493 11.1189C16.5122 11.8817 16.5122 13.1187 15.7493 13.8815L13.3813 16.2495C12.6184 17.0124 11.3816 17.0124 10.6187 16.2495L8.25066 13.8815C7.48779 13.1187 7.48779 11.8817 8.25066 11.1189L10.6187 8.75088Z" fill="currentColor"/>
</svg>
