<svg width="72" height="72" viewBox="0 0 72 72" fill="currentColor" xmlns="http://www.w3.org/2000/svg">
<path fill-rule="evenodd" clip-rule="evenodd" d="M0 36C0 16.1178 16.1178 0 36 0C55.8824 0 72 16.1178 72 36C72 55.8824 55.8824 72 36 72C16.1178 72 0 55.8824 0 36ZM36 5.02326C18.892 5.02326 5.02326 18.892 5.02326 36C5.02326 53.1079 18.892 66.9767 36 66.9767C53.1079 66.9767 66.9767 53.1079 66.9767 36C66.9767 18.892 53.1079 5.02326 36 5.02326Z" fill="currentColor"/>
<path fill-rule="evenodd" clip-rule="evenodd" d="M36.5897 28.3046C36.2625 27.9776 35.7327 27.9776 35.4055 28.3046L28.3017 35.4087C27.9747 35.7355 27.9747 36.2657 28.3017 36.5925L35.4055 43.6964C35.7327 44.0236 36.2625 44.0236 36.5897 43.6964L43.6936 36.5925C44.0204 36.2657 44.0204 35.7355 43.6936 35.4087L36.5897 28.3046ZM31.8538 24.7526C34.1424 22.464 37.8529 22.464 40.1415 24.7526L47.2457 31.8566C49.5343 34.1452 49.5343 37.856 47.2457 40.1446L40.1415 47.2485C37.8529 49.5371 34.1424 49.5371 31.8538 47.2485L24.7497 40.1446C22.461 37.856 22.461 34.1452 24.7497 31.8566L31.8538 24.7526Z" fill="currentColor"/>
</svg>
