<svg width="24" height="24" viewBox="0 0 24 24" fill="currentColor" xmlns="http://www.w3.org/2000/svg">
<path fill-rule="evenodd" clip-rule="evenodd" d="M5.58203 8.43291C5.58203 7.94033 5.95686 7.54102 6.41923 7.54102H13.1168C13.5792 7.54102 13.954 7.94033 13.954 8.43291C13.954 8.92548 13.5792 9.3248 13.1168 9.3248H6.41923C5.95686 9.3248 5.58203 8.92548 5.58203 8.43291Z" fill="currentColor"/>
<path fill-rule="evenodd" clip-rule="evenodd" d="M19.7242 10.4537C19.3234 10.4537 18.9709 10.6192 18.7166 10.8975L18.7016 10.9136C18.4046 11.2224 18.2388 11.662 18.2805 12.1292L18.2814 12.1396C18.3404 12.8948 19.0219 13.5456 19.8581 13.5456H22.0268C22.2073 13.5331 22.3251 13.3828 22.3251 13.2245V10.7748C22.3251 10.6164 22.2073 10.4661 22.0268 10.4537H19.7242ZM17.5243 9.64494C18.0955 9.02447 18.8785 8.66992 19.7242 8.66992H22.046C22.0561 8.66992 22.066 8.6701 22.0759 8.67048C23.1397 8.71096 23.9995 9.62805 23.9995 10.7748V13.2245C23.9995 14.3712 23.1397 15.2884 22.0759 15.3288C22.066 15.3291 22.0561 15.3294 22.046 15.3294H19.8581C18.2847 15.3294 16.7576 14.1037 16.6131 12.293C16.523 11.2677 16.8894 10.3098 17.5243 9.64494Z" fill="currentColor"/>
<path fill-rule="evenodd" clip-rule="evenodd" d="M6.41854 2.78378C6.14589 2.78378 5.88718 2.80452 5.64168 2.84477L5.61861 2.84819C4.38254 3.01344 3.41086 3.57722 2.74552 4.40882C2.07846 5.24256 1.6744 6.40233 1.6744 7.83784V16.1622C1.6744 17.7433 2.16546 18.9916 2.96406 19.8423C3.76266 20.6931 4.9344 21.2162 6.41854 21.2162H16.465C17.9491 21.2162 19.1209 20.6931 19.9195 19.8423C20.718 18.9916 21.2091 17.7433 21.2091 16.1622V15.3297H19.8584C18.2849 15.3297 16.7578 14.104 16.6134 12.2934C16.5232 11.2681 16.8897 10.3102 17.5246 9.64541C18.0957 9.02483 18.8787 8.67028 19.7245 8.67028H21.2091V7.83784C21.2091 6.39262 20.798 5.22562 20.1204 4.38918C19.4444 3.55464 18.4576 2.99238 17.2055 2.83726C17.1918 2.83556 17.1781 2.8335 17.1645 2.83109C16.9637 2.79544 16.738 2.78378 16.465 2.78378H6.41854ZM5.39864 1.07983C5.72995 1.02621 6.07014 1 6.41854 1H16.465C16.766 1 17.091 1.01159 17.4188 1.06791C19.038 1.2732 20.416 2.02377 21.388 3.22378C22.3625 4.4268 22.8835 6.02468 22.8835 7.83784V9.56217C22.8835 10.0547 22.5087 10.4541 22.0463 10.4541H19.7245C19.3236 10.4541 18.9711 10.6196 18.7168 10.8979L18.7018 10.9139C18.4048 11.2227 18.2389 11.6625 18.2807 12.1295L18.2817 12.14C18.3407 12.8951 19.0222 13.5459 19.8584 13.5459H22.0463C22.5087 13.5459 22.8835 13.9453 22.8835 14.4378V16.1622C22.8835 18.1486 22.2583 19.8733 21.1034 21.1036C19.9485 22.3339 18.3296 23 16.465 23H6.41854C4.55388 23 2.93495 22.3339 1.78008 21.1036C0.625211 19.8733 0 18.1486 0 16.1622V7.83784C0 6.03875 0.511284 4.45149 1.4712 3.25172C2.43053 2.05266 3.79321 1.29718 5.39864 1.07983Z" fill="currentColor"/>
</svg>
