<svg width="72" height="72" viewBox="0 0 72 72" fill="currentColor" xmlns="http://www.w3.org/2000/svg">
<path fill-rule="evenodd" clip-rule="evenodd" d="M17.7637 26.2698C17.7637 24.9265 18.8285 23.8374 20.1421 23.8374H39.1694C40.4829 23.8374 41.5478 24.9265 41.5478 26.2698C41.5478 27.6132 40.4829 28.7023 39.1694 28.7023H20.1421C18.8285 28.7023 17.7637 27.6132 17.7637 26.2698Z" fill="currentColor"/>
<path fill-rule="evenodd" clip-rule="evenodd" d="M57.9469 31.7843C56.8085 31.7843 55.807 32.2358 55.0846 32.9947L55.0418 33.0385C54.1982 33.8807 53.727 35.0798 53.8456 36.3537L53.8481 36.3822C54.0159 38.4417 55.9519 40.2167 58.3275 40.2167H64.4885C65.0013 40.1827 65.3359 39.7727 65.3359 39.3411V32.66C65.3359 32.228 65.0013 31.818 64.4885 31.7843H57.9469ZM51.6974 29.5786C53.3201 27.8864 55.5444 26.9194 57.9469 26.9194H64.5431C64.5716 26.9194 64.5998 26.9199 64.6281 26.921C67.6502 27.0314 70.0927 29.5325 70.0927 32.66V39.3411C70.0927 42.4685 67.6502 44.9697 64.6281 45.08C64.5998 45.0809 64.5716 45.0816 64.5431 45.0816H58.3275C53.8576 45.0816 49.5191 41.7388 49.1087 36.8006C48.8528 34.0043 49.8936 31.3919 51.6974 29.5786Z" fill="currentColor"/>
<path fill-rule="evenodd" clip-rule="evenodd" d="M20.1427 10.8649C19.3682 10.8649 18.6332 10.9214 17.9357 11.0312L17.8702 11.0405C14.3586 11.4912 11.5982 13.0288 9.70798 15.2968C7.81292 17.5706 6.66504 20.7336 6.66504 24.6486V47.3514C6.66504 51.6636 8.06009 55.068 10.3288 57.3882C12.5976 59.7084 15.9264 61.1351 20.1427 61.1351H48.6837C52.9002 61.1351 56.229 59.7084 58.4977 57.3882C60.7664 55.068 62.1614 51.6636 62.1614 47.3514V45.0811H58.3242C53.8541 45.0811 49.5155 41.7383 49.1055 36.8001C48.8493 34.0038 49.8904 31.3914 51.6942 29.5784C53.3166 27.8859 55.5409 26.919 57.9437 26.919H62.1614V24.6486C62.1614 20.7071 60.9935 17.5244 59.0685 15.2432C57.148 12.9672 54.3447 11.4338 50.7875 11.0107C50.7485 11.0061 50.7098 11.0005 50.6711 10.9939C50.1006 10.8966 49.4594 10.8649 48.6837 10.8649H20.1427ZM17.2453 6.21772C18.1865 6.07148 19.153 6 20.1427 6H48.6837C49.539 6 50.4622 6.03162 51.3935 6.18522C55.9934 6.7451 59.9083 8.79211 62.6698 12.0649C65.4382 15.3458 66.9183 19.7037 66.9183 24.6486V29.3514C66.9183 30.6947 65.8534 31.7838 64.5398 31.7838H57.9437C56.8049 31.7838 55.8034 32.2352 55.081 32.9942L55.0385 33.0379C54.1947 33.8802 53.7234 35.0796 53.842 36.3532L53.8449 36.3817C54.0127 38.4412 55.9487 40.2162 58.3242 40.2162H64.5398C65.8534 40.2162 66.9183 41.3053 66.9183 42.6486V47.3514C66.9183 52.7689 65.1421 57.4725 61.8611 60.828C58.5802 64.1835 53.9809 66 48.6837 66H20.1427C14.8454 66 10.2461 64.1835 6.96526 60.828C3.68437 57.4725 1.9082 52.7689 1.9082 47.3514V24.6486C1.9082 19.742 3.36072 15.4132 6.08775 12.141C8.81313 8.87089 12.6844 6.81049 17.2453 6.21772Z" fill="currentColor"/>
</svg>
