<svg width="72" height="72" viewBox="0 0 72 72" fill="currentColor" xmlns="http://www.w3.org/2000/svg">
<path d="M63.441 12.7951C54.2254 11.3272 45.3143 8.35248 37.065 3.99011C36.7336 3.84146 36.3734 3.76813 36.0103 3.77539C35.6472 3.78266 35.2902 3.87033 34.965 4.03211C26.6907 8.34708 17.7772 11.3057 8.565 12.7951C8.05376 12.8953 7.59321 13.1699 7.26213 13.5722C6.93105 13.9744 6.75002 14.4792 6.75 15.0001V32.6671C6.75 57.3691 30.522 66.5461 35.289 68.1331C35.7502 68.289 36.2498 68.289 36.711 68.1331C41.478 66.5461 65.25 57.3691 65.25 32.6671V15.0001C65.2503 14.48 65.0701 13.9759 64.7402 13.5738C64.4103 13.1717 63.9511 12.8965 63.441 12.7951ZM60.741 32.6671C60.741 53.2591 41.487 61.6471 35.991 63.6181C30.495 61.6471 11.241 53.2591 11.241 32.6671V16.8361C19.8747 15.3138 28.2321 12.5087 36.036 8.51411C43.8078 12.5172 52.1398 15.3228 60.75 16.8361L60.741 32.6671ZM39.06 43.5001C39.06 44.0922 38.8848 44.671 38.5564 45.1637C38.2281 45.6563 37.7613 46.0408 37.2149 46.2688C36.6684 46.4967 36.0668 46.5578 35.4857 46.4445C34.9046 46.3311 34.37 46.0484 33.9493 45.6318C33.5285 45.2152 33.2405 44.6835 33.1213 44.1036C33.0022 43.5236 33.0574 42.9214 33.2798 42.3727C33.5023 41.824 33.8822 41.3534 34.3715 41.0202C34.8609 40.687 35.438 40.506 36.03 40.5001H36.06C36.8556 40.5001 37.6187 40.8162 38.1813 41.3788C38.7439 41.9414 39.06 42.7045 39.06 43.5001ZM36 23.2501C36.5967 23.2501 37.169 23.4872 37.591 23.9091C38.0129 24.3311 38.25 24.9034 38.25 25.5001V34.5001C38.25 35.0968 38.0129 35.6691 37.591 36.0911C37.169 36.5131 36.5967 36.7501 36 36.7501C35.4033 36.7501 34.831 36.5131 34.409 36.0911C33.9871 35.6691 33.75 35.0968 33.75 34.5001V25.5001C33.75 24.9034 33.9871 24.3311 34.409 23.9091C34.831 23.4872 35.4033 23.2501 36 23.2501Z" fill="currentColor"/>
</svg>
